<?xml version="1.0" encoding="iso-8859-1"?>
<!-- Uploaded to: SVG Repo, www.svgrepo.com, Generator: SVG Repo Mixer Tools -->
<svg version="1.1" id="Layer_1" xmlns="http://www.w3.org/2000/svg" xmlns:xlink="http://www.w3.org/1999/xlink" 
	 viewBox="0 0 512 512" xml:space="preserve">
<circle style="fill:#366695;" cx="256" cy="256" r="256"/>
<path style="fill:#273B7A;" d="M257.002,511.988c134.027-0.515,243.76-104.015,254.18-235.484L350.239,115.562l-56.077,96.73
	h-189.58v61.521l91.389,91.389l-48.93,11.686l30.561,30.561l-17.601,2.719L257.002,511.988z"/>
<path style="fill:#121149;" d="M406.842,273.813c-3.332,0-6.034-2.701-6.034-6.034v-53.727h-41.086
	c-3.332,0-6.034-2.701-6.034-6.034s2.701-6.034,6.034-6.034h47.12c3.332,0,6.034,2.701,6.034,6.034v59.761
	C412.875,271.112,410.174,273.813,406.842,273.813z"/>
<path style="fill:#273B7A;" d="M104.582,273.813c-3.332,0-6.034-2.701-6.034-6.034v-59.761c0-3.332,2.701-6.034,6.034-6.034h47.12
	c3.332,0,6.034,2.701,6.034,6.034s-2.701,6.034-6.034,6.034h-41.086v53.727C110.616,271.112,107.915,273.813,104.582,273.813z"/>
<g>
	<path style="fill:#272525;" d="M341.525,412.72h-25.179c-4.813,0-8.716-3.903-8.716-8.716v-46.485c0-4.813,3.903-8.716,8.716-8.716
		h25.179c4.813,0,8.716,3.903,8.716,8.716v46.485C350.241,408.819,346.338,412.72,341.525,412.72z"/>
	<path style="fill:#272525;" d="M191.345,412.72h-25.179c-4.813,0-8.716-3.903-8.716-8.716v-46.485c0-4.813,3.903-8.716,8.716-8.716
		h25.179c4.813,0,8.716,3.903,8.716,8.716v46.485C200.061,408.819,196.158,412.72,191.345,412.72z"/>
</g>
<path style="fill:#C92F00;" d="M157.306,380.84H354.12c8.489,0,15.372-6.882,15.372-15.372V150.125
	c0-22.454-18.203-40.657-40.655-40.657H182.593c-22.454,0-40.657,18.203-40.657,40.657v215.343
	C141.934,373.957,148.816,380.84,157.306,380.84z"/>
<path style="fill:#930000;" d="M328.835,109.468H256V380.84h98.12c8.489,0,15.372-6.882,15.372-15.372V150.123
	C369.49,127.671,351.287,109.468,328.835,109.468z"/>
<rect x="157.444" y="137.912" style="fill:#FFFFFF;" width="196.525" height="85.333"/>
<rect x="256" y="137.912" style="fill:#D0D1D3;" width="97.975" height="85.333"/>
<rect x="157.444" y="237.037" style="fill:#FFFFFF;" width="89.571" height="87.631"/>
<rect x="264.395" y="237.037" style="fill:#D0D1D3;" width="89.571" height="87.631"/>
<g>
	<circle style="fill:#FFC61B;" cx="173.546" cy="348.798" r="12.067"/>
	<circle style="fill:#FFC61B;" cx="333.869" cy="348.798" r="12.067"/>
</g>
<path style="fill:#FFFFFF;" d="M293.638,353.401h-84.471c-0.953,0-1.724-0.771-1.724-1.724s0.771-1.724,1.724-1.724h84.471
	c0.953,0,1.724,0.771,1.724,1.724S294.591,353.401,293.638,353.401z"/>
<path style="fill:#D0D1D3;" d="M293.638,349.953H256v3.448h37.638c0.953,0,1.724-0.771,1.724-1.724S294.591,349.953,293.638,349.953
	z"/>
</svg>