<svg width="38" height="42" viewBox="0 0 38 42" fill="none" xmlns="http://www.w3.org/2000/svg">
<path d="M9.61902 28.6857L9.63807 28.6646" stroke="black" stroke-width="3" stroke-linecap="round" stroke-linejoin="round"/>
<path d="M28.6667 28.6857L28.6858 28.6646" stroke="black" stroke-width="3" stroke-linecap="round" stroke-linejoin="round"/>
<path d="M2 21.0476H36.2857V34.3809C36.2857 35.4329 35.433 36.2857 34.381 36.2857H3.90476C2.8528 36.2857 2 35.4329 2 34.3809V21.0476Z" stroke="black" stroke-width="3" stroke-linecap="round" stroke-linejoin="round"/>
<path d="M36.2857 13.4286V9.61905C36.2857 5.41116 32.8745 2 28.6667 2H9.61905C5.41116 2 2 5.41116 2 9.61905V13.4286" stroke="black" stroke-width="3" stroke-linecap="round" stroke-linejoin="round"/>
<path d="M9.61902 13.4286H28.6666" stroke="black" stroke-width="3" stroke-linecap="round" stroke-linejoin="round"/>
<path d="M3.90479 36.2857H11.5238V40.0952C11.5238 41.1472 10.671 42 9.61907 42H5.80955C4.75759 42 3.90479 41.1472 3.90479 40.0952V36.2857Z" fill="black"/>
<path d="M26.7618 36.2857H34.3809V40.0952C34.3809 41.1472 33.5281 42 32.4761 42H28.6666C27.6146 42 26.7618 41.1472 26.7618 40.0952V36.2857Z" fill="black"/>
</svg>
