<svg width="41" height="40" viewBox="0 0 41 40" fill="none" xmlns="http://www.w3.org/2000/svg">
<path d="M17.3731 15.6125L17.3732 15.6124C18.1884 15.1029 18.6839 14.2092 18.6839 13.2476V3.22198C18.6839 2.27097 19.4549 1.5 20.4059 1.5C21.3568 1.5 22.1278 2.27097 22.1278 3.22198V13.2476C22.1278 14.2093 22.6233 15.1029 23.4385 15.6124L23.4386 15.6125L39.3117 25.5331V27.0766L25.593 23.647C23.8327 23.2068 22.1278 24.5383 22.1278 26.3525V32.7089C22.1278 33.5131 22.4749 34.2783 23.0803 34.8079L27.1451 38.3644L20.9049 37.2298C20.9048 37.2298 20.9047 37.2298 20.9047 37.2298C20.5749 37.1698 20.2366 37.1698 19.9068 37.2298L13.6666 38.3644L17.7314 34.8079C17.7314 34.8078 17.7315 34.8078 17.7315 34.8078C18.3368 34.2782 18.6839 33.5131 18.6839 32.7089V26.3525C18.6839 24.5382 16.979 23.2069 15.2187 23.647C15.2187 23.647 15.2187 23.647 15.2186 23.647L1.5 27.0766V25.5331L17.3731 15.6125ZM39.5742 27.1422L39.5734 27.142C39.5737 27.1421 39.574 27.1421 39.5743 27.1422L39.5742 27.1422ZM27.8976 38.5012L27.8974 38.5012L27.8976 38.5012Z" stroke="black" stroke-width="3" stroke-linecap="round" stroke-linejoin="round"/>
</svg>
