<?xml version="1.0" standalone="no"?>
<!DOCTYPE svg PUBLIC "-//W3C//DTD SVG 20010904//EN"
 "http://www.w3.org/TR/2001/REC-SVG-20010904/DTD/svg10.dtd">
<svg version="1.0" xmlns="http://www.w3.org/2000/svg"
 width="4676.000000pt" height="4675.000000pt" viewBox="0 0 4676.000000 4675.000000"
 preserveAspectRatio="xMidYMid meet">

<g transform="translate(0.000000,4675.000000) scale(0.100000,-0.100000)"
fill="#000000" stroke="none">
<path d="M10 23375 l0 -23375 23375 0 23375 0 0 23375 0 23375 -23375 0
-23375 0 0 -23375z m24541 20090 c16 -9 39 -30 49 -48 19 -31 20 -56 20 -794
l0 -762 -31 -35 c-47 -54 -119 -66 -177 -28 -54 35 -52 11 -52 838 l0 766 39
39 c32 33 45 39 80 39 23 0 55 -7 72 -15z m-1696 -477 c21 -20 176 -279 399
-667 337 -584 366 -639 366 -680 -1 -26 -6 -56 -14 -69 -34 -61 -126 -81 -186
-39 -46 31 -770 1282 -777 1343 -10 79 51 144 135 144 34 0 49 -6 77 -32z
m3423 12 c40 -25 66 -81 59 -127 -3 -18 -174 -324 -379 -679 -285 -494 -380
-651 -403 -665 -39 -25 -102 -24 -143 1 -40 24 -66 81 -59 126 3 18 174 324
379 680 285 494 380 651 403 665 39 25 102 24 143 -1z m-8858 -600 c664 -115
1224 -529 1524 -1126 143 -285 211 -550 223 -869 9 -259 -23 -491 -102 -730
-122 -371 -329 -681 -627 -939 -97 -85 -220 -220 -754 -836 -350 -404 -646
-745 -656 -757 l-20 -21 61 -27 c70 -32 142 -103 172 -169 37 -84 35 -172 -6
-307 -5 -14 6 -16 77 -16 100 1 170 -26 235 -92 63 -64 87 -121 91 -218 4 -72
1 -89 -23 -140 -54 -118 -148 -183 -276 -191 -94 -5 -159 14 -218 64 -22 20
-41 33 -41 30 0 -29 -87 -310 -105 -341 -32 -55 -80 -99 -145 -131 -47 -24
-67 -28 -135 -28 -73 0 -148 18 -875 218 -498 136 -813 227 -843 244 -93 50
-157 152 -165 262 -4 61 19 171 73 351 4 13 -8 15 -77 15 -101 0 -174 29 -236
94 -62 63 -86 121 -90 217 -4 71 -1 88 23 142 74 165 237 226 444 167 92 -27
111 -27 111 -1 0 8 9 39 20 69 29 76 88 139 166 177 58 29 76 33 145 32 57 0
79 3 79 12 0 37 -383 2079 -399 2130 -29 89 -58 207 -78 320 -24 140 -24 509
0 650 76 437 263 813 557 1118 196 203 357 322 605 442 228 111 451 177 696
204 135 16 425 6 569 -19z m4783 -1010 c353 -204 652 -383 664 -397 69 -83 6
-213 -104 -213 -33 0 -134 55 -678 369 -352 203 -652 381 -667 395 -30 29 -44
81 -34 123 4 14 22 41 41 60 29 29 39 33 84 33 49 0 78 -15 694 -370z m5327
355 c39 -20 60 -63 60 -120 0 -38 -5 -51 -32 -79 -19 -20 -298 -186 -669 -400
-689 -397 -675 -390 -746 -346 -63 38 -81 120 -40 181 18 26 156 111 667 406
573 331 650 373 688 373 24 0 56 -7 72 -15z m-2739 -354 c593 -127 1043 -576
1174 -1171 25 -113 32 -410 12 -536 -100 -630 -579 -1124 -1212 -1251 -139
-27 -435 -25 -575 6 -150 32 -238 63 -376 131 -392 196 -687 566 -788 991 -78
323 -49 655 83 957 208 476 662 821 1176 891 114 16 395 6 506 -18z m-2232
-1359 c97 -52 90 -185 -11 -238 -22 -12 -151 -14 -770 -14 -828 0 -787 -3
-835 69 -41 61 -20 139 49 181 32 19 52 20 783 20 708 0 752 -1 784 -18z
m5415 4 c52 -22 76 -60 76 -121 0 -39 -6 -60 -22 -80 -44 -56 -24 -55 -829
-55 -820 0 -790 -2 -830 64 -40 65 -12 163 54 191 47 21 1501 22 1551 1z
m8409 -136 c633 -123 1123 -652 1198 -1294 14 -124 7 -340 -16 -456 -9 -47
-30 -127 -47 -179 l-30 -93 53 -52 c410 -400 355 -1085 -113 -1419 -90 -64
-217 -122 -324 -148 -148 -35 -259 -30 -829 40 -274 33 -511 61 -525 61 l-26
0 -98 -822 c-54 -453 -102 -840 -107 -860 -13 -53 -59 -88 -115 -88 -79 0
-134 47 -134 116 0 15 45 400 100 857 55 457 99 831 98 832 -2 2 -178 24 -393
50 -214 25 -420 53 -457 61 -359 75 -681 325 -847 658 -91 182 -131 352 -131
552 0 211 35 365 125 550 167 343 482 593 848 673 l79 17 27 65 c88 209 247
423 419 562 242 196 498 302 822 341 82 10 319 -4 423 -24z m-5186 -801 c24
-12 56 -37 71 -57 25 -33 27 -43 30 -148 2 -69 -1 -120 -7 -133 -10 -17 -7
-22 16 -35 35 -18 75 -61 99 -106 16 -30 19 -58 19 -185 0 -136 -2 -154 -22
-192 -16 -31 -19 -43 -9 -43 7 0 40 -14 74 -31 108 -54 198 -174 265 -354 15
-38 52 -140 83 -225 67 -185 84 -218 131 -271 51 -57 100 -78 227 -101 253
-44 355 -161 445 -512 55 -211 69 -323 53 -418 -20 -116 -73 -187 -172 -232
-38 -17 -71 -21 -210 -24 -170 -4 -180 -7 -180 -48 0 -40 -69 -159 -122 -212
-169 -168 -435 -173 -614 -10 -57 53 -119 160 -130 226 l-7 42 -612 0 -613 0
-7 -37 c-30 -166 -190 -315 -368 -345 -219 -36 -451 116 -498 327 l-12 53
-181 4 c-170 3 -184 5 -236 29 -164 76 -199 202 -146 519 40 237 79 349 162
461 72 98 148 140 300 164 136 22 168 33 216 74 51 44 92 128 183 381 78 216
116 293 191 384 56 68 122 113 205 141 l46 16 -24 46 c-21 42 -23 60 -23 177
0 72 5 148 11 169 19 70 103 144 184 161 l30 7 0 123 c0 118 1 124 27 158 15
20 46 45 70 57 42 21 54 21 527 21 472 0 486 -1 528 -21z m-8362 -69 c64 -39
80 -135 32 -193 -12 -14 -311 -192 -665 -396 -606 -350 -645 -371 -692 -371
-37 0 -55 6 -79 25 -56 48 -65 132 -18 187 12 14 312 193 666 397 700 403 684
396 756 351z m4054 -346 c378 -218 649 -380 669 -400 26 -28 32 -41 32 -79 0
-87 -47 -135 -132 -135 -38 1 -117 43 -688 374 -507 293 -650 379 -667 406
-58 85 5 200 111 200 34 0 134 -54 675 -366z m-3329 -379 c38 -20 60 -63 60
-117 0 -39 -39 -111 -366 -678 -221 -385 -379 -648 -400 -667 -27 -26 -42 -33
-74 -33 -53 0 -96 23 -120 63 -43 70 -50 56 350 750 204 353 384 654 400 670
35 32 101 37 150 12z m1995 -4 c23 -14 118 -170 403 -664 207 -359 376 -662
379 -681 7 -44 -21 -103 -61 -127 -39 -24 -102 -24 -141 0 -23 14 -119 172
-403 665 -206 356 -376 662 -379 680 -7 45 19 102 59 126 41 25 104 26 143 1z
m-14833 -227 c84 -59 83 -53 268 -849 93 -402 172 -739 174 -750 5 -19 13 -20
173 -20 148 0 177 -3 242 -23 264 -83 501 -279 735 -605 62 -88 249 -391 661
-1072 152 -253 278 -461 279 -462 1 -1 222 50 491 113 639 148 670 155 800
161 198 9 348 -42 468 -160 165 -163 227 -374 214 -736 -8 -220 -29 -434 -62
-627 -24 -142 -162 -779 -190 -875 -54 -187 -165 -338 -320 -434 -97 -61 -195
-97 -375 -139 -85 -20 -2013 -469 -4285 -997 -2271 -528 -4177 -971 -4235
-985 -362 -84 -599 -36 -809 163 -77 74 -486 579 -621 769 -104 146 -282 439
-354 583 -156 310 -175 536 -66 757 69 141 212 252 412 320 38 13 381 96 762
184 380 88 700 164 711 169 14 6 34 45 63 122 56 146 233 622 282 759 303 849
388 1066 515 1325 252 513 500 742 912 843 81 19 143 39 143 46 0 6 -38 175
-85 375 -47 201 -85 386 -85 413 0 85 48 169 123 212 55 32 499 138 582 139
33 0 76 -7 96 -15 55 -24 114 -83 136 -136 11 -26 58 -210 104 -409 66 -287
86 -363 99 -363 20 0 650 147 656 153 3 3 -34 170 -81 371 -54 235 -85 388
-85 424 0 96 53 182 139 226 48 25 504 126 567 126 97 -1 185 -53 222 -133 11
-23 60 -211 107 -417 48 -206 88 -376 89 -377 3 -3 145 33 151 39 3 3 -71 336
-164 739 -183 787 -188 815 -150 899 40 89 62 101 269 152 193 47 258 47 322
2z m13823 -34 c80 -39 75 16 75 -837 0 -734 -1 -759 -20 -790 -24 -41 -67 -63
-121 -63 -35 0 -48 6 -80 39 l-39 39 0 766 c0 828 -2 803 52 838 24 16 50 25
77 27 8 0 33 -8 56 -19z m13305 -2879 c30 -21 45 -67 60 -183 11 -81 14 -88
34 -88 19 0 22 4 18 30 -7 49 7 98 40 136 41 46 77 64 133 64 86 0 156 -55
173 -136 7 -33 12 -39 33 -37 13 1 346 48 739 104 809 114 837 116 944 63 77
-38 147 -107 185 -186 29 -60 37 -102 132 -773 112 -790 114 -823 67 -927 -46
-100 -161 -199 -260 -222 -92 -21 -2365 -338 -2428 -338 -169 0 -325 115 -373
274 -9 29 -61 375 -117 768 -113 801 -112 782 -48 902 49 93 157 179 251 202
24 6 28 11 24 29 -3 12 -11 68 -18 123 -11 92 -11 104 4 128 29 43 57 54 192
75 142 21 177 20 215 -8z m-13951 -211 c103 -21 220 -72 323 -141 117 -78 266
-211 631 -562 175 -168 187 -178 209 -166 13 7 181 109 373 227 193 118 378
228 411 244 136 64 257 61 470 -13 142 -49 183 -69 235 -116 88 -79 92 -155
17 -269 -85 -127 -305 -395 -641 -780 l-38 -43 23 -15 c76 -49 213 -80 291
-66 105 20 289 139 461 300 145 134 218 175 311 175 125 -1 215 -89 215 -210
0 -16 -6 -55 -14 -85 -22 -86 -302 -856 -332 -911 -15 -27 -51 -72 -81 -100
-102 -96 -235 -133 -406 -111 -88 11 -839 137 -883 148 -20 5 -19 2 12 -93 52
-154 69 -257 55 -325 -16 -77 -57 -130 -125 -163 -51 -25 -64 -27 -139 -23
-96 5 -141 25 -262 116 -149 110 -311 295 -498 567 l-75 110 -229 49 c-468
101 -865 205 -1022 269 -415 167 -852 622 -943 979 -60 237 63 522 292 678
119 81 402 211 597 273 266 86 521 105 762 57z m6794 -724 c54 -20 103 -60
132 -110 33 -56 89 -341 79 -401 -9 -58 -41 -114 -87 -157 l-40 -38 166 -886
c91 -488 168 -888 170 -890 2 -2 111 17 243 42 219 42 249 45 354 41 134 -6
205 -23 316 -78 187 -92 334 -263 394 -459 11 -36 164 -833 340 -1773 343
-1833 336 -1787 304 -1945 -20 -99 -97 -257 -165 -340 -45 -54 -197 -182 -217
-182 -31 -1 -32 -18 -11 -139 17 -101 19 -134 10 -187 -36 -236 -234 -395
-474 -382 -70 4 -96 10 -161 41 -143 68 -221 174 -257 353 -11 54 -21 99 -22
100 -2 2 -1278 -235 -1294 -241 -8 -3 -9 -15 -2 -47 34 -147 27 -264 -20 -363
-161 -342 -656 -339 -814 5 -11 25 -30 94 -42 155 l-22 109 -39 8 c-140 26
-246 69 -347 142 -125 89 -230 230 -283 379 -18 52 -652 3433 -660 3523 -23
248 110 529 320 678 132 94 186 112 493 171 130 25 238 47 240 49 2 2 -68 390
-157 862 -88 473 -163 873 -166 890 -5 26 -12 32 -47 41 -53 15 -121 73 -148
126 -12 22 -34 111 -50 196 -31 165 -30 211 5 280 19 37 83 93 125 111 47 19
1685 328 1746 328 28 1 67 -5 88 -12z m-10954 -246 c240 -25 444 -109 637
-264 70 -56 176 -167 207 -217 8 -13 18 -14 56 -7 80 16 298 13 391 -7 226
-46 421 -154 578 -319 526 -554 337 -1455 -371 -1756 -93 -40 -3138 -817
-3259 -832 -165 -21 -353 18 -508 105 -102 57 -250 205 -307 307 -147 264
-147 576 0 840 55 99 207 253 298 303 l65 37 -4 87 c-11 235 79 470 247 646
173 181 394 277 642 277 l96 0 18 48 c107 288 363 551 648 668 106 43 219 72
323 83 114 12 131 12 243 1z m15931 -495 c208 -34 447 -135 610 -259 281 -211
478 -518 552 -859 32 -145 32 -437 0 -579 -49 -221 -142 -423 -273 -588 -32
-41 -709 -1247 -709 -1264 0 -2 18 -6 41 -9 53 -7 112 -47 146 -99 24 -35 29
-54 32 -124 l3 -83 25 10 c38 14 131 11 166 -7 45 -23 86 -63 108 -106 26 -51
26 -146 -1 -197 -50 -99 -177 -148 -277 -106 -20 8 -38 13 -41 10 -2 -2 -8
-53 -12 -112 -10 -155 -47 -217 -153 -258 -42 -16 -72 -15 -613 14 -313 18
-582 34 -599 37 -50 10 -110 50 -141 96 -29 42 -29 45 -29 180 0 134 -1 138
-20 130 -11 -4 -52 -7 -92 -7 -63 0 -76 3 -114 30 -27 19 -54 51 -72 85 -24
46 -28 64 -25 112 6 81 47 143 118 181 50 26 62 28 141 25 l87 -3 5 51 c11
108 88 189 193 203 l42 6 -278 665 c-152 366 -302 715 -332 775 -89 176 -129
314 -149 515 -41 417 110 830 416 1135 332 333 778 476 1245 400z m4214 -2430
c146 -42 287 -120 531 -293 100 -71 504 -365 541 -393 7 -6 137 94 350 268
368 299 431 346 508 368 72 22 233 19 352 -5 205 -42 290 -85 326 -167 24 -55
20 -91 -20 -178 -43 -92 -248 -428 -416 -684 -110 -168 -144 -226 -134 -233
37 -24 129 -43 208 -42 109 1 149 18 266 117 119 99 153 133 238 241 135 169
218 226 326 226 130 0 210 -83 210 -218 0 -69 -180 -921 -211 -1000 -42 -104
-132 -193 -235 -232 -120 -45 -189 -45 -976 -13 l-157 6 39 -78 c22 -43 53
-117 70 -164 27 -74 31 -97 28 -163 -4 -99 -36 -148 -123 -193 -51 -26 -69
-30 -141 -30 -81 0 -86 2 -196 58 -62 31 -153 87 -203 124 -92 69 -320 290
-437 421 l-64 74 -115 9 c-739 59 -1113 110 -1283 174 -155 58 -378 182 -506
280 -224 171 -415 414 -465 589 -25 87 -17 246 18 344 63 180 163 295 387 444
420 279 728 385 1081 373 84 -4 139 -12 203 -30z m-14439 -760 c214 -55 387
-209 456 -405 21 -59 23 -87 27 -316 5 -285 -4 -368 -48 -462 l-29 -62 52 -26
c156 -80 280 -203 356 -354 82 -165 86 -193 85 -650 0 -371 -2 -400 -21 -471
-23 -81 -67 -177 -114 -245 l-28 -41 82 -22 c185 -49 389 -174 557 -343 261
-260 412 -538 621 -1143 95 -278 327 -899 391 -1050 135 -317 281 -487 525
-609 98 -49 189 -72 426 -106 311 -46 389 -67 557 -150 393 -197 648 -512 819
-1016 50 -148 219 -783 267 -1004 97 -448 109 -781 39 -1056 -83 -326 -306
-562 -627 -663 -158 -50 -206 -54 -712 -60 l-480 -6 -12 -75 c-33 -191 -118
-400 -235 -572 -87 -129 -267 -306 -395 -391 -165 -110 -336 -181 -535 -224
-121 -26 -458 -26 -579 1 -522 113 -940 484 -1105 979 -19 56 -41 144 -51 195
l-17 92 -2043 0 -2043 0 -6 -37 c-98 -617 -552 -1095 -1166 -1229 -66 -15
-127 -19 -289 -19 -228 0 -296 10 -477 70 -482 161 -872 599 -968 1092 -9 43
-18 88 -21 101 l-4 22 -470 0 c-500 0 -614 7 -770 46 -352 89 -615 353 -695
698 -26 111 -36 294 -25 449 10 143 23 231 78 562 17 99 42 254 57 344 145
901 550 1532 1101 1717 112 37 221 59 471 94 301 41 443 84 570 171 148 102
240 231 366 519 71 162 266 678 374 990 156 451 240 634 408 885 153 231 315
406 473 514 118 80 326 168 475 201 31 7 57 17 57 22 0 5 -11 24 -24 41 -41
54 -104 195 -123 276 -16 67 -18 125 -18 471 1 374 2 399 23 472 63 226 211
407 415 507 105 51 212 81 291 81 l44 0 -21 58 c-20 52 -22 79 -25 338 -3 227
0 293 12 347 41 178 168 328 344 409 130 59 41 56 1737 57 1368 1 1568 -1
1620 -14z m-10463 -316 c147 -31 279 -136 355 -284 84 -164 103 -282 103 -642
l0 -263 493 0 c551 0 561 -1 702 -70 147 -72 260 -186 331 -335 74 -155 69
-44 69 -1565 0 -1126 -2 -1375 -14 -1420 -74 -297 -311 -512 -609 -551 -51 -6
-837 -9 -2292 -7 -2107 3 -2218 4 -2275 22 -208 63 -371 201 -461 391 -74 155
-69 44 -69 1565 l0 1365 23 80 c59 205 197 369 387 460 131 63 147 65 693 65
l492 0 0 248 c0 363 17 474 96 640 75 156 198 262 347 298 70 17 1550 19 1629
3z m-7182 -1859 c440 -39 833 -223 1146 -534 156 -157 267 -315 368 -527 201
-422 230 -898 83 -1352 l-35 -107 79 -81 c283 -289 391 -699 290 -1096 -102
-397 -418 -714 -818 -820 -78 -20 -129 -26 -248 -30 -141 -4 -189 0 -814 76
-366 44 -665 80 -666 78 -1 -1 -58 -474 -127 -1051 -136 -1130 -126 -1071
-192 -1120 -20 -16 -42 -21 -86 -21 -71 0 -105 21 -138 87 l-23 46 126 1047
c70 576 125 1048 123 1050 -2 2 -214 29 -473 59 -258 31 -506 64 -550 72 -295
58 -566 203 -780 419 -220 221 -362 479 -427 778 -19 87 -22 132 -22 312 0
179 3 224 21 307 93 414 329 757 676 982 157 103 360 187 524 217 l72 13 36
86 c99 235 276 482 464 647 391 343 885 507 1391 463z m32675 -695 c185 -50
339 -180 428 -360 59 -119 79 -207 85 -380 l5 -150 76 -55 c41 -30 120 -100
176 -155 243 -244 398 -543 461 -890 23 -128 24 -405 1 -554 l-16 -103 24 -37
c51 -77 41 -172 -26 -243 l-39 -42 -100 -750 c-63 -472 -107 -773 -119 -810
-29 -85 -78 -160 -146 -225 -107 -100 -233 -151 -373 -151 -67 0 -2196 277
-2306 300 -234 49 -426 287 -426 529 0 69 260 2039 285 2161 41 198 142 430
262 600 82 116 279 314 390 393 92 65 263 157 368 198 l70 27 27 106 c81 321
278 544 530 601 80 19 279 13 363 -10z m-4949 -440 c141 -42 203 -177 204
-442 l0 -133 250 0 c227 0 254 -2 304 -21 77 -28 148 -96 188 -177 l33 -67 0
-695 0 -695 -28 -60 c-36 -78 -104 -146 -181 -182 l-61 -28 -1125 0 -1125 0
-61 28 c-77 36 -145 104 -181 182 l-28 60 0 695 0 695 33 67 c40 81 111 149
188 177 50 19 77 21 304 21 l250 0 0 123 c0 156 13 237 51 314 34 72 84 118
149 138 67 21 766 21 836 0z m-921 -3731 c364 -68 683 -276 886 -578 106 -158
176 -323 215 -511 29 -138 26 -405 -4 -544 -56 -249 -169 -469 -334 -645 l-74
-80 23 -56 c78 -193 64 -481 -33 -673 -112 -221 -317 -390 -554 -454 -101 -28
-339 -25 -443 5 -116 33 -176 67 -626 352 -227 143 -417 260 -422 258 -4 -2
-193 -295 -418 -653 -282 -446 -420 -657 -442 -672 -77 -55 -179 -2 -179 93 0
37 42 108 419 704 l419 663 -291 184 c-362 229 -393 251 -493 354 -610 631
-310 1681 543 1899 163 42 392 44 543 5 l61 -16 57 51 c197 177 476 298 757
330 100 11 284 3 390 -16z m-20585 -822 c120 -28 171 -47 286 -102 345 -167
594 -507 683 -936 27 -132 42 -341 35 -479 l-6 -110 128 -96 c245 -184 429
-366 609 -604 337 -443 544 -974 596 -1527 18 -199 7 -532 -26 -780 l-28 -206
26 -34 c52 -68 71 -126 71 -218 0 -113 -32 -187 -115 -264 l-58 -54 -181
-1360 c-99 -748 -187 -1385 -195 -1417 -76 -290 -283 -536 -560 -666 -129 -60
-218 -80 -380 -86 -139 -5 -159 -2 -2140 261 -1100 146 -2024 271 -2053 277
-188 38 -369 137 -511 280 -84 85 -140 165 -195 280 -65 135 -87 227 -93 389
-4 132 1 176 241 1975 234 1759 260 1934 305 2112 168 658 605 1283 1179 1686
186 131 462 278 663 352 57 21 107 41 111 44 4 3 17 53 28 111 50 241 166 518
291 695 190 267 443 432 751 491 109 20 426 12 538 -14z m26460 -1041 c148
-45 162 -51 190 -91 34 -48 28 -97 -39 -314 -34 -110 -60 -200 -59 -201 16 -9
351 -105 355 -101 3 2 31 90 63 195 33 104 66 204 75 221 16 31 80 69 117 70
9 0 83 -20 163 -44 162 -49 197 -71 217 -137 11 -38 2 -74 -96 -391 -14 -43
-21 -80 -18 -82 4 -2 23 -7 42 -11 l35 -6 119 388 c65 213 125 400 132 415 16
32 58 66 91 75 25 6 183 -37 234 -63 29 -15 59 -69 59 -107 0 -18 -218 -745
-246 -820 -2 -7 24 -25 59 -41 126 -59 226 -199 273 -384 31 -123 42 -287 50
-792 l6 -385 292 -89 c160 -49 323 -103 362 -121 127 -58 194 -138 214 -255
22 -127 -19 -242 -157 -445 -97 -142 -150 -206 -332 -404 -163 -178 -224 -230
-303 -258 -77 -26 -209 -22 -313 10 -1607 494 -4504 1385 -4572 1407 -204 65
-297 144 -346 291 -9 25 -32 158 -53 295 -34 228 -37 268 -38 474 -1 290 18
370 116 476 63 68 130 96 231 96 98 0 131 -9 592 -151 l320 -99 75 61 c41 34
229 189 418 346 189 158 382 314 430 348 305 217 502 271 740 201 40 -11 75
-19 78 -16 2 3 29 86 59 184 68 220 80 249 119 274 46 29 105 25 246 -19z
m-35670 -1521 c40 -20 83 -69 94 -105 3 -11 17 -103 30 -203 13 -101 26 -185
29 -189 3 -3 21 -3 39 1 l33 6 0 87 c0 76 4 95 27 139 59 112 164 170 292 162
149 -10 259 -112 281 -261 4 -28 12 -47 20 -47 7 0 588 74 1291 165 736 95
1313 165 1359 165 291 -1 566 -208 649 -490 9 -30 87 -595 173 -1255 167
-1283 173 -1347 139 -1475 -63 -236 -264 -437 -492 -495 -105 -26 -4100 -537
-4200 -537 -173 0 -329 62 -457 182 -104 97 -187 238 -211 355 -22 111 -316
2453 -316 2520 0 199 104 411 261 532 70 53 183 110 251 125 29 6 54 12 56 14
2 1 -9 90 -23 198 -28 215 -27 241 20 302 14 19 40 41 58 50 33 18 401 71 500
73 40 1 70 -5 97 -19z m17535 -1690 c441 -50 822 -316 1021 -713 30 -62 61
-115 67 -119 7 -4 31 -8 55 -8 24 0 78 -7 120 -16 420 -86 769 -396 905 -805
86 -257 73 -577 -32 -830 -145 -349 -438 -602 -820 -708 l-96 -26 -1880 0
-1880 0 -90 28 c-254 80 -450 243 -565 472 -77 152 -93 227 -93 420 -1 146 2
168 27 250 91 299 318 535 601 625 114 36 115 36 115 69 0 48 48 197 91 284
130 258 367 450 645 519 73 18 116 22 239 21 149 0 159 -2 320 -48 16 -4 26 4
47 37 15 24 54 74 87 111 278 319 698 484 1116 437z m13886 -263 c140 -54 192
-177 138 -324 -35 -94 -157 -211 -799 -768 -157 -136 -286 -250 -288 -255 -2
-4 131 -124 295 -266 608 -527 743 -655 782 -739 35 -75 40 -170 11 -230 -27
-55 -82 -99 -154 -121 -46 -14 -432 -15 -3815 -14 -4154 1 -3851 -4 -4017 64
-88 36 -213 113 -309 191 -79 64 -513 446 -690 607 -176 161 -307 306 -345
382 -24 48 -30 72 -30 126 0 92 32 153 134 256 100 99 694 649 835 772 188
165 324 249 486 304 l70 23 3395 5 c4530 7 4245 8 4301 -13z m2594 -2642 l25
-24 0 -504 0 -504 -24 -22 c-35 -33 -93 -31 -123 4 l-23 26 0 500 0 500 25 24
c16 17 35 25 60 25 25 0 44 -8 60 -25z m-1113 -292 c38 -42 498 -855 498 -879
0 -15 -12 -38 -29 -55 -37 -36 -82 -39 -114 -6 -12 12 -129 207 -260 434 -253
438 -259 453 -215 500 27 29 97 32 120 6z m2220 3 c23 -17 38 -59 31 -86 -10
-38 -473 -834 -499 -857 -45 -41 -106 -26 -130 32 -10 24 -11 41 -4 59 18 47
473 831 493 849 23 20 84 22 109 3z m-12799 -191 c101 -26 171 -85 224 -188
48 -95 55 -139 60 -364 l5 -213 324 0 c302 0 329 -1 386 -21 117 -39 212 -119
265 -224 54 -104 53 -84 53 -1025 0 -757 -2 -884 -15 -935 -42 -161 -188 -299
-353 -334 -38 -8 -471 -11 -1485 -11 -1255 0 -1440 2 -1492 15 -180 47 -318
200 -345 381 -13 92 -13 1665 0 1759 22 151 126 291 267 358 l68 32 345 5 345
5 6 220 c6 232 11 260 60 358 50 99 136 167 232 187 23 4 256 8 517 9 392 1
486 -2 533 -14z m-6393 -81 c37 -23 60 -64 60 -111 0 -32 -32 -92 -189 -358
-201 -342 -220 -365 -291 -365 -43 0 -98 33 -118 70 -31 59 -15 98 173 415
205 346 198 335 227 352 32 18 105 16 138 -3z m1194 -5 c33 -26 56 -69 56
-106 0 -31 -15 -58 -235 -432 -162 -275 -176 -291 -254 -291 -37 0 -49 6 -82
39 -35 34 -39 44 -39 87 0 46 13 72 185 364 102 173 198 325 213 337 37 31
118 32 156 2z m1202 -15 c29 -30 34 -42 34 -85 0 -47 -12 -70 -180 -357 -100
-169 -196 -322 -215 -339 -28 -27 -43 -33 -77 -33 -24 0 -56 8 -74 19 -39 24
-68 83 -61 126 7 42 358 641 398 678 25 23 38 27 85 27 52 0 59 -3 90 -36z
m9038 -34 c106 -17 200 -37 213 -46 66 -43 75 -104 44 -298 -11 -66 -18 -123
-15 -128 3 -4 16 -8 29 -8 19 0 25 8 35 50 43 181 252 247 389 124 63 -57 85
-111 79 -194 -3 -38 0 -60 6 -60 49 0 2016 -314 2067 -330 219 -68 371 -275
372 -505 0 -107 -281 -1921 -313 -2020 -70 -212 -280 -365 -503 -365 -100 0
-3264 495 -3330 521 -78 31 -140 74 -202 141 -92 99 -145 230 -145 360 0 90
295 1965 320 2031 78 209 279 349 502 351 l66 1 17 115 c31 212 41 237 104
270 47 25 44 25 265 -10z m5101 -706 c226 -130 421 -247 435 -260 52 -50 14
-144 -59 -144 -17 0 -171 83 -432 233 -222 129 -414 240 -426 247 -24 16 -43
51 -43 81 0 31 53 79 87 79 19 0 166 -79 438 -236z m3466 223 c40 -31 51 -91
22 -125 -10 -11 -206 -129 -436 -261 -294 -170 -426 -241 -448 -241 -65 0
-104 88 -61 139 9 11 204 129 432 261 419 242 452 257 491 227z m-1741 -237
c100 -24 248 -92 334 -154 176 -127 319 -331 376 -541 31 -113 39 -322 16
-435 -41 -202 -123 -356 -266 -500 -145 -147 -304 -235 -495 -275 -105 -21
-295 -22 -399 0 -362 75 -657 359 -748 721 -32 125 -31 361 1 479 27 103 105
262 169 345 234 309 633 451 1012 360z m-18079 -239 c34 -33 39 -45 39 -83 0
-40 -20 -78 -181 -354 -99 -170 -196 -324 -215 -341 -29 -29 -41 -33 -85 -33
-46 0 -55 4 -90 39 -34 33 -39 45 -39 83 0 40 18 74 156 309 86 145 169 288
186 316 44 78 79 103 140 103 45 0 54 -4 89 -39z m1166 19 c42 -25 67 -73 60
-119 -3 -23 -73 -153 -192 -355 -201 -340 -214 -356 -288 -356 -79 0 -127 50
-127 131 0 37 24 83 190 363 129 218 198 327 217 338 37 23 101 22 140 -2z
m-5480 -312 c16 -17 69 -210 213 -768 105 -409 192 -745 193 -746 1 -1 58 -20
127 -43 218 -72 420 -183 603 -331 l79 -63 196 196 c186 186 199 197 235 197
49 0 77 -28 77 -77 0 -35 -12 -49 -196 -234 l-196 -197 68 -83 c149 -184 264
-393 336 -613 27 -83 46 -127 57 -130 9 -3 345 -89 746 -192 545 -139 736
-192 753 -208 32 -28 28 -91 -8 -117 -14 -10 -334 -97 -750 -204 -399 -102
-735 -190 -747 -195 -13 -5 -23 -16 -23 -23 0 -34 -68 -214 -125 -332 -71
-146 -154 -276 -243 -380 l-60 -70 194 -196 c189 -190 194 -196 194 -236 0
-33 -6 -46 -26 -62 -53 -42 -63 -35 -274 174 -107 107 -199 195 -204 195 -4 0
-38 -26 -74 -57 -177 -150 -456 -299 -673 -357 l-65 -18 -194 -755 c-210 -818
-202 -793 -270 -793 -63 0 -57 -18 -264 788 -107 415 -196 755 -198 756 -2 1
-55 19 -119 40 -214 69 -457 204 -629 349 l-65 55 -201 -199 c-221 -220 -230
-225 -285 -170 -55 55 -50 64 171 285 l199 201 -58 70 c-140 168 -280 424
-342 625 -18 58 -33 106 -34 108 -1 1 -341 89 -756 196 -807 208 -789 202
-789 265 0 42 26 69 83 85 29 8 369 97 757 196 388 100 705 182 705 183 1 1
11 38 23 82 30 104 106 280 168 389 42 74 141 213 226 319 l22 27 -202 203
c-217 218 -223 228 -181 281 16 20 29 26 62 26 40 0 46 -5 237 -195 107 -107
199 -195 203 -195 4 0 38 25 74 56 157 133 394 264 615 338 l121 41 193 750
c158 615 197 753 215 768 30 24 81 22 106 -5z m-7521 -242 c516 -109 952 -444
1182 -908 117 -236 167 -438 178 -708 4 -108 31 -299 136 -945 72 -445 132
-811 133 -813 2 -2 22 7 46 20 59 31 155 36 216 13 52 -20 122 -80 154 -132
l22 -35 44 52 c55 62 109 91 184 97 174 16 315 -140 279 -311 -21 -102 -85
-170 -191 -206 l-46 -15 73 -104 c40 -57 78 -119 85 -138 6 -19 9 -67 7 -107
-6 -135 14 -116 -623 -565 -308 -216 -578 -402 -600 -412 -26 -12 -63 -19
-107 -19 -120 0 -169 32 -273 181 l-77 109 -31 -47 c-21 -30 -52 -57 -87 -77
-46 -26 -65 -30 -125 -30 -58 0 -79 5 -124 29 -98 54 -148 146 -138 255 8 97
52 157 170 239 26 17 47 34 47 36 0 2 -15 27 -32 56 -28 44 -33 64 -37 126 -4
91 14 145 68 200 l37 39 -749 419 c-412 231 -772 429 -801 441 -28 11 -100 46
-161 77 -819 422 -1148 1444 -732 2273 254 506 728 849 1287 930 151 21 434
12 586 -20z m28433 -101 c50 -25 58 -96 15 -136 l-26 -24 -471 -3 c-260 -2
-487 0 -505 3 -46 8 -72 37 -72 81 0 44 15 72 43 84 12 5 239 9 505 9 405 1
488 -1 511 -14z m3532 -14 c31 -31 35 -53 19 -95 -21 -56 -25 -57 -561 -54
l-491 3 -24 28 c-33 39 -31 81 5 118 l29 29 497 0 497 0 29 -29z m-3341 -646
c30 -32 32 -87 5 -115 -35 -34 -853 -500 -878 -500 -34 0 -74 34 -82 69 -13
62 -2 71 441 328 455 263 467 268 514 218z m2614 -211 c226 -130 421 -247 434
-261 31 -34 29 -78 -7 -114 -33 -33 -58 -36 -104 -13 -113 58 -815 469 -829
486 -44 50 -4 138 63 138 24 0 140 -62 443 -236z m-2143 -263 c33 -34 36 -58
12 -104 -60 -117 -469 -815 -485 -829 -50 -44 -138 -4 -138 63 0 24 61 139
236 443 130 226 247 421 261 434 34 31 78 29 114 -7z m1283 7 c14 -13 132
-207 262 -433 258 -446 262 -457 210 -501 -30 -27 -81 -31 -108 -10 -9 7 -126
201 -259 432 -264 456 -268 465 -214 511 33 29 77 29 109 1z m-655 -163 c16
-8 31 -22 35 -30 3 -9 6 -241 6 -516 l0 -500 -25 -24 c-33 -34 -84 -34 -119 1
l-26 27 0 499 0 500 29 29 c33 32 58 36 100 14z m-15328 -425 c38 -11 112 -69
130 -102 23 -43 61 -205 61 -260 0 -47 3 -58 17 -58 31 0 116 -48 154 -86 55
-55 69 -88 113 -261 35 -142 37 -157 27 -215 -6 -35 -10 -64 -9 -65 1 -1 33
-7 71 -13 90 -13 210 -72 292 -142 75 -63 138 -141 246 -303 241 -360 320
-454 425 -503 61 -29 88 -30 337 -22 85 3 123 0 170 -14 194 -58 295 -161 475
-482 163 -294 205 -414 198 -573 -5 -112 -29 -169 -100 -240 -61 -62 -148
-100 -339 -150 l-166 -43 -1 -77 c-2 -159 -54 -284 -166 -396 -114 -114 -237
-165 -401 -165 -169 0 -286 49 -405 169 -42 42 -89 101 -104 131 l-29 56 -763
-196 -764 -195 0 -75 c0 -267 -190 -499 -455 -555 -130 -27 -248 -11 -374 51
-89 44 -192 142 -241 229 -18 33 -34 61 -35 63 -2 2 -85 -18 -186 -44 -154
-39 -200 -47 -279 -48 -82 0 -103 3 -152 26 -112 52 -187 148 -222 285 -9 34
-26 166 -37 295 -18 201 -20 249 -10 348 13 139 32 213 76 305 65 135 151 208
338 285 187 76 244 138 277 301 19 95 40 271 60 499 18 202 49 323 118 455 42
80 134 178 204 214 l46 25 -38 45 c-51 62 -53 66 -95 226 -43 162 -45 257 -8
330 27 52 109 129 155 145 35 13 36 14 21 36 -22 35 -63 202 -63 262 0 33 7
67 20 91 25 50 103 118 149 132 20 5 279 72 576 149 545 140 608 152 686 130z
m7294 -914 c330 -56 600 -207 965 -537 146 -133 463 -432 728 -688 123 -119
230 -215 237 -215 12 1 644 384 1031 624 163 102 316 181 400 207 46 14 90 18
194 17 161 -2 275 -27 514 -117 229 -87 351 -169 396 -270 26 -56 26 -158 1
-214 -64 -140 -458 -636 -959 -1208 l-210 -239 41 -24 c183 -104 388 -139 540
-92 69 21 242 121 395 227 51 36 159 128 240 205 174 165 252 226 348 273 173
85 334 66 452 -52 114 -114 121 -276 25 -528 -19 -49 -122 -333 -228 -630
-106 -297 -203 -565 -215 -595 -60 -153 -197 -307 -332 -373 -123 -60 -182
-72 -363 -71 -137 1 -189 6 -365 37 -113 20 -378 65 -590 101 -212 36 -445 76
-517 89 -73 13 -133 21 -133 17 0 -3 11 -34 25 -68 58 -144 125 -424 125 -526
0 -256 -209 -422 -483 -384 -96 13 -170 45 -286 122 -305 203 -576 507 -949
1063 -34 50 -66 94 -71 97 -5 3 -83 21 -173 40 -849 179 -1566 364 -1849 476
-286 113 -663 374 -934 645 -292 292 -523 653 -596 932 -85 324 31 693 306
968 113 114 198 170 433 288 473 239 867 372 1232 416 112 14 518 6 625 -13z
m-11636 -2940 c42 -22 58 -54 77 -153 19 -101 15 -134 -25 -173 l-27 -28 84
-448 c46 -247 85 -450 86 -451 1 -1 64 10 141 24 120 22 148 24 202 15 88 -15
164 -52 222 -110 92 -92 85 -64 267 -1035 185 -986 185 -985 132 -1099 -29
-63 -92 -137 -144 -169 l-34 -21 6 -84 c9 -106 -9 -157 -73 -213 -135 -120
-338 -48 -376 134 -9 45 -15 55 -32 55 -11 -1 -157 -27 -325 -58 l-305 -58 0
-90 c0 -83 -2 -94 -30 -139 -19 -31 -49 -61 -79 -79 -41 -26 -58 -30 -115 -30
-56 0 -76 5 -115 28 -59 35 -99 96 -115 176 -11 53 -15 61 -39 66 -102 22
-162 55 -227 125 -25 27 -57 73 -70 102 -16 37 -72 311 -190 946 -181 969
-178 940 -134 1056 27 73 114 167 190 205 37 19 100 37 178 51 66 13 125 25
130 29 8 4 -121 735 -154 877 -3 13 -20 29 -41 39 -46 22 -63 50 -80 127 -27
126 -9 200 55 226 37 16 844 169 894 170 21 1 51 -6 66 -13z m7834 -1247 c233
-47 450 -175 592 -349 l57 -70 42 8 c86 15 287 7 380 -16 343 -85 613 -350
703 -691 36 -133 37 -333 5 -466 -27 -109 -102 -267 -170 -356 -98 -128 -249
-245 -402 -309 -51 -21 -2671 -693 -2808 -720 -39 -8 -103 -11 -170 -7 -197
10 -338 73 -482 217 -71 70 -94 101 -133 180 -60 121 -79 206 -79 340 1 130
25 229 83 342 54 102 171 228 263 282 l66 39 0 101 c1 214 66 382 209 538 149
161 347 248 565 248 70 0 96 3 96 13 0 6 22 57 49 112 118 246 315 426 572
522 173 65 376 80 562 42z"/>
<path d="M16805 42215 c-991 -151 -1696 -1016 -1634 -2005 10 -160 46 -349 68
-358 9 -3 727 -201 1596 -438 l1580 -432 54 56 c348 368 539 910 500 1420 -52
686 -456 1285 -1068 1583 -127 62 -329 130 -476 159 -141 29 -479 37 -620 15z"/>
<path d="M15312 39597 c43 -123 188 -357 315 -508 120 -143 411 -387 432 -363
4 5 25 146 45 314 20 168 39 317 42 331 l5 26 -323 88 c-178 48 -369 100 -425
115 l-101 28 10 -31z"/>
<path d="M16335 39308 c-15 -93 -85 -683 -81 -693 7 -19 213 -96 351 -130 146
-37 273 -56 281 -43 11 17 294 672 291 674 -4 3 -818 224 -827 224 -5 0 -12
-15 -15 -32z"/>
<path d="M17361 39039 c-5 -13 -66 -154 -135 -314 -69 -159 -126 -293 -126
-297 0 -8 37 -6 210 13 266 30 571 144 816 305 114 75 116 79 52 97 -71 21
-746 204 -780 212 -23 6 -29 3 -37 -16z"/>
<path d="M15400 39043 c0 -26 281 -1539 289 -1553 8 -14 200 -74 209 -65 2 2
34 245 71 539 l67 536 -67 40 c-191 114 -419 317 -554 495 -8 11 -15 14 -15 8z"/>
<path d="M16220 38397 c0 -3 -27 -221 -59 -484 -33 -263 -61 -493 -63 -512
l-3 -35 144 -39 c79 -21 147 -35 151 -30 8 9 410 938 410 947 0 3 -11 6 -25 6
-54 0 -274 54 -393 96 -158 56 -162 58 -162 51z"/>
<path d="M17755 38344 c-185 -66 -385 -103 -598 -112 l-148 -7 -214 -495
c-118 -272 -213 -495 -212 -496 4 -4 195 -54 205 -54 8 0 194 212 911 1038 73
83 131 152 129 151 -2 0 -34 -12 -73 -25z"/>
<path d="M15340 37339 c-42 -17 -70 -50 -85 -103 -8 -27 -14 -50 -12 -51 1 -1
407 -112 902 -247 709 -193 902 -242 908 -231 4 7 11 35 14 61 7 60 -14 110
-56 135 -31 18 -1594 447 -1626 446 -11 0 -31 -5 -45 -10z"/>
<path d="M14730 37108 c-59 -30 -93 -93 -87 -157 8 -78 66 -132 149 -139 59
-4 102 17 142 71 29 40 29 134 0 174 -24 33 -97 73 -134 73 -14 0 -46 -10 -70
-22z"/>
<path d="M15102 36677 c-51 -188 -92 -358 -92 -377 0 -39 29 -93 58 -109 33
-18 1591 -441 1623 -441 35 0 76 19 102 48 17 18 206 681 207 722 0 11 -29 23
-100 42 l-100 26 0 -72 c0 -106 -22 -159 -94 -232 -77 -77 -132 -98 -244 -92
-91 4 -151 30 -211 89 -59 59 -85 120 -89 209 -4 88 8 142 43 195 14 20 27 41
28 47 1 6 -59 27 -133 47 l-135 37 -6 -90 c-6 -104 -27 -154 -89 -216 -108
-108 -280 -126 -405 -41 -98 66 -145 153 -145 271 0 79 19 141 60 191 l29 37
-94 26 c-52 14 -100 26 -107 26 -8 0 -46 -123 -106 -343z"/>
<path d="M15572 36883 c-102 -50 -121 -188 -37 -262 115 -101 289 2 261 154
-13 68 -90 126 -167 125 -13 0 -39 -8 -57 -17z"/>
<path d="M16415 36656 c-101 -44 -125 -178 -46 -257 65 -66 155 -65 221 1 125
125 -14 326 -175 256z"/>
<path d="M17239 36417 c-72 -49 -97 -125 -65 -201 19 -45 73 -85 127 -92 137
-17 230 152 141 257 -51 61 -142 77 -203 36z"/>
<path d="M24365 41149 c-297 -32 -565 -165 -771 -381 -135 -141 -218 -277
-279 -461 -88 -262 -88 -522 0 -784 61 -184 144 -320 279 -461 418 -437 1079
-511 1581 -177 275 183 475 488 537 821 19 103 16 341 -5 442 -94 440 -393
788 -805 936 -156 56 -378 83 -537 65z"/>
<path d="M35935 39663 c-16 -2 -77 -15 -134 -29 -408 -100 -717 -378 -871
-783 -23 -62 -44 -101 -61 -113 -16 -12 -67 -27 -130 -38 -129 -22 -210 -49
-316 -105 -263 -139 -442 -378 -510 -680 -26 -114 -21 -307 11 -430 72 -276
259 -512 507 -640 142 -73 223 -91 665 -145 219 -26 401 -47 403 -45 4 4 71
547 71 577 0 10 -100 133 -223 275 -122 142 -230 269 -240 283 -9 13 -17 42
-17 63 0 80 50 127 134 127 58 0 55 3 307 -290 111 -129 207 -234 213 -232 6
2 160 86 342 188 297 164 337 184 378 184 65 0 116 -46 123 -110 9 -84 -2 -92
-397 -312 -203 -112 -358 -205 -362 -215 -9 -24 -72 -562 -66 -568 7 -8 1074
-135 1128 -135 27 0 82 6 123 14 241 46 431 213 513 451 24 70 28 95 28 205 1
112 -2 134 -28 214 -37 111 -106 217 -188 288 -130 112 -138 122 -138 167 0
22 11 66 25 96 176 398 136 840 -108 1205 -64 96 -231 263 -327 327 -146 98
-320 167 -494 198 -81 14 -282 18 -361 8z"/>
<path d="M30195 38998 c-37 -20 -45 -40 -45 -119 0 -72 2 -79 26 -98 50 -39
54 -32 54 98 0 66 -3 122 -8 125 -4 2 -16 0 -27 -6z"/>
<path d="M30340 38885 l0 -125 295 0 295 0 0 125 0 125 -295 0 -295 0 0 -125z"/>
<path d="M31040 38885 l0 -125 50 0 c41 0 56 5 75 25 22 21 25 33 25 94 0 38
-3 77 -6 86 -9 24 -58 45 -104 45 l-40 0 0 -125z"/>
<path d="M29985 38618 c-43 -34 -55 -75 -55 -190 0 -172 35 -208 202 -208 l98
0 0 210 0 210 -109 0 c-96 0 -111 -2 -136 -22z"/>
<path d="M30340 38430 l0 -210 295 0 295 0 0 210 0 210 -295 0 -295 0 0 -210z
m510 40 c24 -24 25 -38 4 -68 -15 -21 -20 -22 -209 -22 -189 0 -194 1 -209 22
-21 30 -20 44 4 68 19 19 33 20 205 20 172 0 186 -1 205 -20z"/>
<path d="M31040 38430 l0 -210 85 0 c94 0 129 12 164 56 19 24 21 40 21 151 0
188 -21 213 -180 213 l-90 0 0 -210z"/>
<path d="M29965 38100 c-168 -26 -236 -71 -322 -215 -33 -54 -41 -73 -139
-340 -36 -99 -79 -205 -96 -236 -67 -127 -163 -188 -337 -213 -134 -19 -198
-50 -250 -119 -75 -100 -102 -176 -136 -374 -14 -78 -25 -151 -25 -163 0 -20
5 -20 305 -20 l305 0 51 35 c144 99 351 99 496 0 l52 -35 756 0 756 0 33 25
c142 108 367 113 511 10 l50 -35 127 0 128 0 0 124 c0 100 3 128 16 140 12 13
40 16 135 16 72 0 119 4 119 10 0 33 -65 203 -95 247 -63 93 -124 127 -278
154 -129 23 -184 49 -256 122 -62 63 -98 137 -191 392 -93 259 -122 317 -192
387 -97 97 -58 92 -818 94 -360 1 -677 -2 -705 -6z m1350 -165 c111 -54 185
-177 265 -441 57 -189 68 -254 51 -307 -15 -45 -69 -93 -120 -107 -27 -7 -324
-10 -928 -8 l-888 3 -39 24 c-96 60 -100 131 -21 391 31 99 71 213 91 252 44
88 114 164 179 194 l50 24 660 -2 c634 -3 662 -4 700 -23z m-739 -1070 c18
-19 23 -31 19 -48 -13 -42 -31 -47 -184 -47 -160 0 -181 7 -181 61 0 50 28 59
183 59 134 0 139 -1 163 -25z"/>
<path d="M29955 37831 c-52 -23 -101 -80 -136 -157 -33 -72 -129 -390 -129
-425 1 -70 16 -72 468 -63 l392 7 0 328 0 329 -277 0 c-247 0 -282 -2 -318
-19z"/>
<path d="M30660 37521 l0 -328 383 -7 c211 -4 401 -4 421 -1 23 5 43 17 53 32
15 23 15 31 -11 121 -96 336 -148 444 -235 489 -43 22 -51 23 -328 23 l-283 0
0 -329z"/>
<path d="M32340 36505 l0 -85 110 0 c126 0 120 -7 97 105 l-13 60 -97 3 -97 3
0 -86z"/>
<path d="M29489 36407 c-100 -28 -181 -97 -223 -186 -16 -36 -21 -66 -21 -136
0 -79 4 -96 28 -143 131 -249 477 -245 595 6 37 78 38 203 4 273 -72 146 -238
227 -383 186z m175 -91 c18 -7 49 -28 70 -46 131 -116 102 -325 -56 -404 -172
-86 -377 57 -355 246 10 86 71 169 147 202 44 19 150 20 194 2z"/>
<path d="M29503 36200 c-44 -26 -64 -61 -65 -109 -1 -81 70 -148 145 -136 74
11 117 59 117 132 0 102 -111 166 -197 113z"/>
<path d="M31574 36400 c-76 -25 -148 -86 -189 -161 -40 -74 -47 -188 -16 -270
110 -291 532 -275 622 23 78 255 -164 491 -417 408z m237 -105 c24 -17 57 -50
74 -74 26 -38 30 -52 33 -124 3 -78 2 -85 -30 -137 -108 -178 -368 -152 -443
44 -21 54 -17 144 9 193 22 44 74 93 121 115 30 14 58 18 117 16 66 -3 82 -7
119 -33z"/>
<path d="M31624 36210 c-30 -12 -71 -64 -79 -100 -20 -92 78 -180 168 -151
115 38 130 202 22 247 -38 15 -79 17 -111 4z"/>
<path d="M28662 36268 c6 -18 22 -46 37 -62 46 -51 81 -59 262 -64 l166 -4 7
38 c4 22 16 58 26 82 l19 42 -264 0 -264 0 11 -32z"/>
<path d="M29980 36258 c10 -24 22 -60 25 -80 l7 -38 609 0 c479 0 610 3 613
13 7 26 38 123 43 135 4 9 -131 12 -656 12 l-660 0 19 -42z"/>
<path d="M32100 36219 l25 -81 145 4 c130 3 151 7 195 28 48 24 74 56 90 108
l6 22 -243 0 -244 0 26 -81z"/>
<path d="M10467 37793 c-53 -13 -66 -19 -63 -32 3 -9 77 -329 166 -711 88
-382 163 -696 165 -698 2 -2 38 3 80 13 62 13 75 20 71 33 -3 9 -75 321 -161
692 -86 371 -158 685 -162 698 -6 25 -5 25 -96 5z"/>
<path d="M9648 36836 c-98 -23 -180 -45 -183 -47 -5 -5 151 -689 159 -697 5
-5 369 79 379 88 6 5 -48 251 -148 678 -3 12 -11 22 -18 21 -6 0 -92 -20 -189
-43z"/>
<path d="M8015 36456 c-161 -38 -180 -44 -177 -62 5 -26 154 -678 157 -682 1
-1 87 17 191 41 129 30 190 48 191 58 2 8 -32 165 -75 349 -57 242 -82 335
-93 337 -8 1 -95 -17 -194 -41z"/>
<path d="M11260 36170 c-25 -4 -160 -35 -300 -68 -274 -65 -997 -233 -1895
-442 -996 -231 -1077 -250 -1314 -305 -254 -60 -332 -90 -439 -170 -123 -93
-249 -256 -363 -469 l-52 -98 34 7 c19 4 961 223 2094 487 2050 477 2060 479
2155 476 83 -3 104 -7 163 -35 84 -40 165 -116 206 -193 33 -61 116 -380 127
-490 18 -167 -80 -346 -236 -429 -49 -26 -437 -119 -2556 -612 -1375 -319
-2502 -584 -2506 -587 -3 -4 -44 -110 -91 -237 -47 -126 -97 -261 -111 -299
l-26 -68 25 6 c14 4 1545 360 3403 792 1857 432 3378 786 3379 787 2 2 -300
503 -594 987 -264 433 -346 551 -482 693 -114 120 -261 216 -379 251 -67 19
-184 27 -242 16z"/>
<path d="M10801 35230 c-183 -43 -335 -80 -336 -82 -4 -4 135 -610 141 -617 6
-7 676 150 706 165 38 20 70 69 75 117 5 49 -69 375 -95 422 -20 34 -93 75
-132 74 -14 0 -175 -36 -359 -79z"/>
<path d="M9798 34997 c-271 -64 -348 -85 -348 -97 0 -21 135 -599 142 -605 6
-6 715 159 724 168 6 5 -118 563 -133 605 -3 6 -13 12 -22 11 -9 -1 -172 -38
-363 -82z"/>
<path d="M8810 34767 c-190 -45 -347 -82 -349 -84 -4 -3 136 -614 142 -620 9
-8 707 162 704 171 -2 6 -35 144 -72 306 -37 162 -70 298 -74 301 -3 3 -161
-30 -351 -74z"/>
<path d="M7820 34537 c-190 -44 -346 -82 -348 -83 -3 -1 138 -616 143 -622 2
-2 698 158 703 163 5 4 -142 625 -147 624 -4 -1 -161 -38 -351 -82z"/>
<path d="M6970 34339 c-113 -27 -209 -55 -215 -63 -14 -18 -259 -695 -254
-700 4 -5 821 183 828 190 3 3 -22 114 -116 517 -13 59 -28 107 -31 106 -4 -1
-99 -23 -212 -50z"/>
<path d="M14420 34265 c-85 -17 -9764 -2268 -9895 -2301 -282 -71 -382 -159
-393 -343 -8 -143 51 -297 230 -596 102 -169 208 -326 315 -463 49 -63 69 -82
82 -76 25 10 7472 1743 7501 1745 66 4 83 -2 121 -40 36 -35 39 -43 39 -92 0
-65 -26 -113 -72 -134 -18 -8 -1691 -400 -3718 -871 -2027 -471 -3686 -857
-3688 -859 -6 -5 167 -212 215 -257 141 -131 282 -146 608 -68 216 52 8145
1896 8360 1945 314 70 426 124 504 241 48 74 68 138 141 464 110 491 130 604
156 875 23 248 21 459 -5 558 -38 144 -110 238 -208 271 -57 19 -200 20 -293
1z m-1186 -460 c99 -16 202 -99 253 -203 25 -51 28 -67 28 -157 -1 -92 -3
-105 -32 -160 -17 -33 -54 -82 -82 -108 -49 -45 -50 -49 -43 -85 10 -43 -5
-43 182 0 128 29 137 30 172 15 41 -17 78 -68 78 -105 0 -34 -29 -91 -54 -104
-11 -7 -87 -28 -167 -47 l-147 -36 38 -160 c21 -88 50 -213 65 -278 l27 -118
207 332 c113 183 218 341 233 352 29 22 94 25 128 7 30 -16 60 -69 60 -106 0
-23 -61 -129 -238 -414 -132 -211 -252 -400 -269 -419 -49 -59 -124 -94 -213
-99 -41 -2 -93 1 -115 7 -40 10 -779 463 -822 503 -78 73 -26 203 80 203 37 0
80 -24 372 -207 182 -114 331 -201 333 -195 2 12 -115 528 -122 535 -2 2 -62
-11 -134 -27 -173 -41 -204 -41 -248 3 -29 29 -34 41 -34 81 0 40 5 52 33 79
28 29 49 37 165 64 74 18 141 32 149 32 12 0 14 8 8 38 -8 45 -7 44 -77 65
-112 34 -209 125 -245 232 -24 71 -22 185 6 257 44 115 163 210 283 228 53 8
68 7 142 -5z"/>
<path d="M13116 33569 c-69 -20 -107 -94 -84 -164 41 -123 228 -106 245 22 12
92 -73 168 -161 142z"/>
<path d="M37631 35065 c-46 -8 -87 -17 -91 -22 -8 -8 15 -192 25 -202 5 -4
247 28 253 34 4 3 -14 139 -24 183 -5 26 -31 27 -163 7z"/>
<path d="M38625 34864 c-632 -90 -1168 -171 -1190 -179 -86 -32 -157 -117
-174 -209 -13 -70 15 -276 38 -276 9 0 235 31 503 69 l488 69 52 47 c70 61
213 130 310 150 148 29 308 12 435 -45 l64 -29 497 70 c273 39 498 72 501 74
6 7 -20 184 -35 236 -18 61 -85 136 -149 165 -38 18 -66 24 -120 23 -38 -1
-587 -75 -1220 -165z m1219 120 c9 -8 16 -19 16 -23 0 -4 9 -72 20 -151 11
-79 20 -152 20 -161 0 -36 -28 -46 -196 -69 -167 -23 -167 -23 -183 -4 -11 14
-24 77 -39 184 -21 149 -22 165 -7 179 10 11 65 23 158 37 178 27 192 28 211
8z m-1896 -327 c12 -14 42 -193 42 -246 0 -16 -6 -34 -13 -40 -15 -12 -334
-61 -398 -61 -49 0 -53 7 -73 158 -19 134 -15 148 47 157 23 4 96 15 162 25
149 22 219 24 233 7z"/>
<path d="M39658 34876 c-42 -6 -79 -13 -82 -16 -6 -6 18 -177 26 -185 6 -7
171 16 181 25 4 4 2 48 -4 98 -10 73 -16 92 -28 91 -9 -1 -51 -7 -93 -13z"/>
<path d="M37735 34547 c-71 -10 -131 -19 -132 -21 -1 -1 1 -24 5 -51 l8 -50
44 1 c25 0 84 6 133 13 l87 13 -1 32 c-1 17 -4 42 -8 56 l-6 26 -130 -19z"/>
<path d="M38091 35003 c-27 -23 -39 -80 -18 -88 8 -4 41 -3 73 2 54 7 59 10
62 34 2 19 -4 33 -24 48 -33 26 -65 27 -93 4z"/>
<path d="M39790 34429 c-184 -26 -372 -53 -418 -59 l-82 -12 47 -53 c166 -182
221 -448 144 -695 -11 -35 -18 -66 -16 -68 3 -3 813 107 822 112 1 1 -113 805
-116 824 -2 5 -59 -2 -381 -49z"/>
<path d="M38672 34415 c-202 -44 -369 -197 -438 -402 -54 -157 -28 -357 64
-499 108 -166 306 -274 502 -274 160 0 304 62 420 179 116 118 173 254 173
416 -1 377 -352 660 -721 580z m230 -106 c78 -16 185 -76 245 -137 174 -177
182 -472 17 -661 -86 -99 -226 -161 -364 -161 -362 0 -593 372 -434 699 97
198 318 306 536 260z"/>
<path d="M38717 34190 c-110 -28 -218 -124 -257 -228 -57 -148 -5 -325 121
-418 169 -124 403 -85 517 86 51 76 66 131 60 229 -8 136 -86 249 -213 307
-61 28 -167 39 -228 24z"/>
<path d="M37725 34137 c-231 -33 -421 -61 -422 -61 -4 -2 115 -818 120 -822 4
-5 818 106 825 112 2 1 -13 24 -32 51 -88 123 -130 257 -129 418 0 121 16 197
63 302 25 54 26 63 12 62 -9 -1 -206 -28 -437 -62z"/>
<path d="M39810 33465 l-435 -63 -40 -45 c-140 -154 -326 -237 -535 -237 -144
0 -281 39 -386 109 l-44 30 -455 -64 c-250 -36 -460 -65 -466 -65 -21 0 -1
-120 32 -188 47 -97 131 -150 239 -151 80 -1 2376 325 2429 345 25 10 63 35
85 58 73 73 95 145 81 270 l-7 66 -31 -1 c-18 -1 -228 -30 -467 -64z"/>
<path d="M23420 34835 c-115 -21 -242 -57 -233 -66 4 -4 179 -68 388 -143 410
-147 426 -156 466 -241 28 -60 23 -112 -20 -234 -46 -129 -67 -160 -131 -195
-89 -48 -83 -50 -776 199 -345 124 -633 225 -640 225 -20 0 -93 -157 -109
-233 -27 -136 19 -277 157 -480 142 -206 405 -435 633 -549 90 -46 271 -104
516 -167 222 -57 639 -153 650 -149 5 2 -26 55 -67 118 -76 118 -364 684 -364
717 0 24 10 37 36 51 27 14 -62 45 1145 -390 31 -11 29 -6 194 -403 64 -154
121 -284 125 -289 20 -20 956 -176 1059 -176 131 0 237 56 286 150 9 17 86
225 171 462 168 469 175 500 128 537 -61 48 -131 19 -277 -115 -134 -123 -204
-177 -332 -253 -124 -75 -198 -96 -310 -88 -91 7 -170 32 -263 82 -168 93
-481 363 -968 836 -631 613 -781 732 -994 784 -92 23 -371 29 -470 10z"/>
<path d="M22795 34615 c-93 -46 -183 -94 -198 -107 l-28 -23 188 -68 c103 -37
193 -67 198 -67 6 0 36 71 67 158 l56 157 -37 17 c-20 9 -45 17 -56 17 -11 1
-96 -37 -190 -84z"/>
<path d="M23173 34558 c-11 -35 -36 -106 -56 -160 l-35 -96 141 -51 c77 -28
141 -50 142 -49 6 8 115 321 113 323 -7 6 -262 95 -272 95 -7 0 -21 -28 -33
-62z"/>
<path d="M23595 34468 c-2 -7 -27 -77 -55 -154 -27 -78 -50 -146 -50 -150 0
-5 67 -33 149 -62 143 -51 150 -53 183 -39 31 13 39 25 68 98 59 153 53 194
-34 228 -59 24 -246 91 -253 91 -2 0 -6 -6 -8 -12z"/>
<path d="M25930 34451 c-25 -9 -72 -33 -105 -53 -123 -72 -670 -410 -679 -418
-20 -19 607 -577 637 -567 25 8 400 445 575 670 107 137 145 198 136 220 -22
58 -320 167 -453 167 -38 -1 -85 -8 -111 -19z"/>
<path d="M24135 33407 c158 -320 174 -347 407 -685 217 -314 296 -416 410
-529 158 -157 255 -218 344 -217 59 0 100 22 115 62 26 67 -17 237 -120 472
-37 85 -117 273 -176 416 l-109 261 -370 133 c-204 73 -413 148 -463 166 l-93
34 55 -113z"/>
<path d="M29765 33873 c-667 -125 -823 -158 -836 -173 -15 -18 -15 -29 8 -147
14 -70 29 -133 35 -140 6 -7 20 -13 32 -13 30 0 1662 307 1675 315 16 9 14 55
-10 179 -21 110 -34 137 -68 135 -9 -1 -385 -71 -836 -156z"/>
<path d="M30503 33463 c-13 -2 -23 -11 -23 -19 0 -16 318 -1718 326 -1745 4
-14 11 -15 47 -7 23 5 43 11 45 12 3 4 -314 1713 -324 1749 -5 17 -23 19 -71
10z"/>
<path d="M29871 33345 c-210 -41 -384 -75 -386 -77 -3 -3 325 -1761 330 -1767
2 -1 180 30 395 70 324 61 391 76 387 89 -2 8 -77 408 -167 888 -90 479 -166
871 -169 871 -3 -1 -179 -34 -390 -74z"/>
<path d="M29220 33223 c-14 -3 -28 -8 -33 -12 -6 -7 316 -1757 326 -1767 2 -2
22 -1 43 4 28 6 40 13 41 27 1 11 -71 409 -160 885 -127 674 -166 865 -177
866 -8 1 -26 -1 -40 -3z"/>
<path d="M30235 31361 c-801 -151 -1394 -268 -1427 -280 -70 -27 -159 -91
-216 -156 -89 -102 -150 -277 -138 -400 11 -105 635 -3417 657 -3483 54 -163
196 -297 373 -351 134 -41 111 -45 1597 234 748 141 1386 264 1417 275 31 11
88 41 125 67 144 98 232 252 243 428 5 74 -16 196 -301 1715 -370 1974 -336
1808 -381 1899 -92 186 -298 312 -509 310 -48 0 -510 -83 -1440 -258z m1370
-475 c18 -8 40 -25 49 -38 18 -29 560 -2911 551 -2937 -27 -85 -142 -107 -189
-37 -8 13 -134 661 -287 1477 l-272 1454 19 35 c16 29 49 51 92 59 1 1 18 -5
37 -13z m-1170 -220 c22 -10 40 -27 50 -48 17 -38 545 -2849 545 -2904 0 -19
-5 -44 -10 -55 -13 -23 -61 -49 -92 -49 -37 0 -85 35 -97 72 -15 47 -541 2862
-541 2896 0 36 25 71 64 88 39 17 40 17 81 0z m-1160 -227 c12 -6 27 -19 33
-30 13 -21 552 -2873 552 -2922 0 -20 -11 -40 -34 -63 -45 -45 -92 -47 -137
-6 l-32 29 -268 1429 c-148 786 -269 1450 -269 1475 0 37 5 50 28 71 40 38 75
43 127 17z"/>
<path d="M32190 26918 c-112 -21 -206 -41 -208 -43 -11 -11 31 -175 56 -214
89 -145 302 -146 397 -3 39 60 47 114 28 215 -15 84 -17 87 -42 86 -14 -1
-118 -19 -231 -41z"/>
<path d="M30000 26508 c-112 -21 -206 -41 -208 -43 -8 -8 21 -141 40 -185 25
-60 53 -88 113 -116 118 -56 258 -7 314 110 25 52 28 106 11 204 -12 68 -15
72 -39 71 -14 -1 -118 -19 -231 -41z"/>
<path d="M19495 33740 c-250 -39 -485 -183 -631 -385 -51 -71 -118 -210 -139
-291 -23 -83 -38 -110 -78 -131 -27 -14 -41 -14 -113 -3 -173 27 -346 -7 -478
-95 -135 -89 -246 -252 -281 -410 -17 -76 -17 -138 1 -310 6 -56 4 -64 -20
-91 -14 -18 -50 -40 -83 -53 -161 -61 -301 -211 -354 -381 -106 -333 105 -693
448 -765 82 -18 140 -19 219 -4 87 16 3059 775 3128 799 373 129 617 552 542
942 -67 345 -310 601 -653 685 -97 24 -283 21 -387 -5 -114 -29 -135 -20 -206
83 -137 200 -330 335 -567 395 -89 23 -263 33 -348 20z"/>
<path d="M35285 33364 c-456 -70 -814 -322 -1008 -709 -86 -173 -125 -325
-134 -523 -9 -202 21 -373 98 -558 l30 -72 72 -6 c40 -4 524 -31 1077 -61 553
-30 1026 -56 1052 -58 l46 -4 42 73 c122 213 184 501 160 742 -58 581 -461
1031 -1035 1158 -68 15 -340 27 -400 18z"/>
<path d="M34376 31330 c33 -56 218 -242 301 -302 77 -56 220 -134 283 -156 22
-8 30 -8 30 1 0 24 -40 451 -43 452 -1 1 -105 7 -232 14 -126 6 -259 14 -294
18 l-64 6 19 -33z"/>
<path d="M35090 31297 c0 -82 42 -472 51 -478 34 -20 270 -43 363 -34 l73 6
47 232 c25 128 46 239 46 248 0 14 -32 17 -237 28 -131 6 -262 14 -290 18 -52
5 -53 5 -53 -20z"/>
<path d="M35768 31053 c-25 -125 -44 -230 -42 -232 7 -8 172 48 253 85 108 50
257 152 350 241 45 43 81 83 81 89 0 7 -87 15 -247 22 -137 7 -270 15 -298 18
l-50 6 -47 -229z"/>
<path d="M34503 30983 c3 -5 89 -211 192 -458 103 -248 196 -471 207 -497 l20
-48 75 0 75 0 -5 33 c-3 17 -18 178 -33 357 -15 187 -32 330 -38 336 -6 6 -38
21 -71 34 -104 40 -248 119 -339 186 -48 36 -86 62 -83 57z"/>
<path d="M36115 30824 c-112 -62 -213 -102 -324 -130 -52 -13 -96 -26 -98 -28
-5 -5 -145 -708 -141 -711 2 -1 35 -6 73 -10 l70 -6 84 153 c47 84 162 294
257 466 95 171 169 312 166 311 -4 0 -43 -21 -87 -45z"/>
<path d="M35144 30651 c3 -15 17 -173 32 -352 l28 -327 50 -6 c99 -12 154 -8
160 12 3 9 32 157 66 327 34 171 63 318 66 328 5 15 -5 17 -118 18 -68 0 -160
6 -206 13 l-83 12 5 -25z"/>
<path d="M34723 29850 c-27 -11 -49 -45 -56 -87 -6 -31 -5 -32 36 -37 23 -3
263 -17 532 -31 270 -14 538 -29 598 -32 l107 -6 0 32 c0 45 -24 86 -57 99
-15 6 -244 22 -508 36 -264 14 -514 28 -555 31 -41 2 -85 0 -97 -5z"/>
<path d="M34365 29620 c-99 -40 -85 -186 20 -206 60 -11 125 44 125 106 0 37
-30 81 -65 96 -38 16 -51 16 -80 4z"/>
<path d="M34656 29568 c-14 -111 -26 -458 -17 -475 5 -10 19 -27 30 -37 19
-17 70 -22 583 -49 310 -17 575 -28 590 -24 53 14 58 35 73 303 12 197 12 249
2 256 -6 4 -37 8 -68 8 l-56 0 5 -74 c4 -63 1 -82 -18 -121 -43 -88 -141 -137
-239 -117 -131 27 -210 161 -168 285 15 44 15 45 -6 51 -12 3 -54 6 -93 6
l-71 0 5 -73 c5 -86 -13 -133 -74 -186 -48 -42 -73 -51 -147 -51 -164 1 -261
163 -192 323 6 15 0 17 -63 17 l-71 0 -5 -42z"/>
<path d="M34927 29570 c-14 -11 -31 -36 -37 -54 -32 -97 90 -177 169 -110 53
45 51 132 -5 169 -33 22 -96 19 -127 -5z"/>
<path d="M35533 29550 c-61 -25 -74 -120 -24 -171 67 -67 181 -16 181 81 0 46
-56 100 -101 99 -19 0 -44 -4 -56 -9z"/>
<path d="M36118 29513 c-75 -48 -65 -154 19 -189 103 -43 190 93 110 173 -31
32 -93 40 -129 16z"/>
<path d="M39475 30953 c-151 -19 -482 -130 -435 -147 8 -2 188 -42 400 -87
212 -45 397 -87 411 -95 46 -23 97 -92 108 -146 9 -40 7 -67 -10 -151 -35
-177 -82 -242 -189 -266 -53 -12 -11 -20 -771 143 -323 69 -594 126 -602 126
-21 0 -65 -114 -79 -205 -27 -175 61 -346 295 -572 126 -121 284 -229 457
-312 162 -77 219 -96 392 -126 227 -39 918 -113 964 -103 10 2 -13 35 -67 98
-45 52 -111 138 -148 190 -144 203 -321 473 -321 489 0 10 11 28 25 41 l25 23
552 -117 c304 -65 576 -124 603 -131 l50 -14 184 -317 c101 -174 189 -317 195
-319 19 -6 466 -24 772 -31 282 -7 293 -6 364 15 60 19 81 31 125 74 34 35 57
69 69 102 16 47 174 768 198 901 13 73 -1 111 -46 133 -64 30 -148 -27 -272
-185 -113 -145 -304 -311 -414 -362 -80 -37 -235 -43 -345 -13 -192 53 -506
251 -1149 725 -677 499 -801 578 -992 626 -73 19 -251 26 -349 13z"/>
<path d="M41860 30886 c-63 -16 -102 -45 -465 -340 -176 -142 -321 -260 -323
-261 -9 -7 427 -305 613 -420 l105 -65 164 247 c243 369 426 679 426 723 0 40
-80 74 -257 110 -113 22 -196 25 -263 6z"/>
<path d="M38770 30674 c-158 -99 -313 -216 -299 -228 8 -7 392 -86 397 -81 6
5 71 301 72 322 0 6 -15 14 -32 18 -18 4 -40 8 -48 11 -9 2 -49 -17 -90 -42z"/>
<path d="M39067 30663 c-9 -15 -70 -323 -66 -328 7 -6 282 -66 286 -61 5 5 74
328 71 332 -2 2 -58 14 -123 28 -66 14 -130 28 -142 31 -12 3 -24 2 -26 -2z"/>
<path d="M39480 30571 c0 -5 -15 -81 -34 -169 l-33 -159 149 -32 c214 -46 223
-42 258 115 26 116 25 128 -7 163 -25 26 -45 33 -176 60 -170 35 -157 34 -157
22z"/>
<path d="M40219 29497 c73 -108 165 -234 204 -279 135 -157 454 -503 545 -590
183 -176 394 -308 493 -308 91 0 149 44 149 114 0 59 -89 262 -173 394 -24 37
-120 200 -215 362 l-172 295 -461 99 c-253 54 -470 101 -481 104 -15 4 14 -47
111 -191z"/>
<path d="M22285 29936 c-93 -29 -165 -93 -184 -163 -15 -54 -14 -445 1 -497
25 -82 140 -166 230 -166 l28 0 0 420 c0 471 7 432 -75 406z"/>
<path d="M22720 29530 l0 -420 985 0 985 0 0 420 0 420 -985 0 -985 0 0 -420z"/>
<path d="M25060 29530 l0 -420 154 0 154 0 63 33 c43 22 73 46 94 75 l30 44 3
256 c2 251 2 258 -20 297 -13 21 -42 54 -66 72 -65 49 -125 63 -279 63 l-133
0 0 -420z"/>
<path d="M21680 28724 c-119 -32 -217 -116 -274 -234 l-31 -65 -3 -374 c-3
-354 -2 -376 18 -435 40 -122 128 -216 250 -268 53 -22 66 -23 388 -26 l332
-3 0 710 0 711 -312 -1 c-242 0 -325 -4 -368 -15z"/>
<path d="M22720 28030 l0 -710 985 0 985 0 0 710 0 710 -985 0 -985 0 0 -710z
m1660 160 c60 -31 93 -88 93 -159 0 -72 -27 -121 -87 -156 l-43 -25 -593 0
c-582 0 -595 0 -637 21 -122 59 -126 243 -7 315 l39 24 598 0 c580 0 599 -1
637 -20z"/>
<path d="M25060 28030 l0 -711 298 3 c283 3 300 4 352 26 122 52 213 150 250
270 18 59 20 93 20 412 0 319 -2 353 -20 412 -37 120 -128 218 -250 270 -52
22 -69 23 -352 26 l-298 3 0 -711z"/>
<path d="M21685 26949 c-372 -25 -660 -101 -843 -223 -122 -81 -284 -266 -415
-474 -120 -190 -196 -366 -326 -744 -70 -205 -227 -628 -323 -868 -57 -144
-168 -378 -221 -464 -163 -269 -414 -450 -732 -530 -55 -14 -200 -39 -322 -56
-437 -60 -570 -115 -759 -313 -153 -160 -272 -362 -367 -627 -56 -154 -119
-409 -148 -595 -12 -77 -41 -257 -64 -400 -24 -143 -46 -279 -49 -302 l-6 -43
1027 -2 1028 -3 60 49 c139 115 304 206 468 261 163 54 236 66 427 72 148 4
194 2 295 -15 249 -43 477 -145 668 -299 l78 -63 2515 0 2516 0 46 41 c155
136 401 257 631 310 124 29 402 37 536 16 261 -42 504 -149 707 -313 l67 -54
425 0 426 0 0 393 c0 239 4 407 10 429 14 50 55 97 105 119 36 17 73 19 416
19 l376 0 -43 163 c-143 544 -328 852 -616 1025 -172 104 -248 128 -553 172
-313 46 -441 84 -600 176 -284 166 -471 389 -623 744 -73 170 -271 698 -374
995 -213 618 -326 842 -533 1062 -188 200 -306 262 -631 330 -72 15 -262 17
-2119 18 -1122 1 -2094 -1 -2160 -6z m4113 -517 c404 -108 705 -467 919 -1097
24 -71 79 -251 122 -400 44 -148 102 -344 130 -435 61 -194 81 -301 81 -419 0
-170 -56 -307 -164 -409 -76 -71 -136 -103 -251 -137 l-90 -27 -2920 0 c-2903
0 -2920 0 -2996 20 -308 82 -467 320 -429 643 12 104 38 208 118 469 28 91 83
275 122 410 151 516 291 815 495 1053 164 192 393 319 624 347 36 4 986 7
2111 6 l2045 -1 83 -23z m-2295 -3595 c49 -37 71 -81 71 -142 0 -62 -30 -120
-81 -155 l-37 -25 -491 0 -492 0 -37 29 c-61 46 -78 81 -74 156 4 76 29 119
86 150 35 19 58 19 528 17 l491 -2 36 -28z"/>
<path d="M21530 26074 c-107 -28 -179 -73 -281 -174 -200 -199 -309 -435 -490
-1060 -44 -151 -100 -338 -124 -415 -59 -188 -75 -258 -75 -338 0 -117 38
-168 155 -204 68 -20 39 -20 1783 -15 l942 2 0 1110 0 1110 -927 -1 c-776 0
-937 -3 -983 -15z"/>
<path d="M23802 24983 l3 -1108 1295 -7 c859 -5 1319 -4 1365 2 39 6 95 23
125 38 121 60 128 178 29 491 -22 69 -76 250 -120 401 -99 342 -163 532 -228
679 -121 274 -268 460 -431 545 -130 69 -88 66 -1114 66 l-926 0 2 -1107z"/>
<path d="M29400 21610 l0 -300 371 0 371 0 -6 58 c-11 90 -54 327 -79 437
l-24 100 -316 3 -317 2 0 -300z"/>
<path d="M19977 21315 c-392 -74 -714 -342 -850 -707 -52 -139 -62 -201 -62
-393 0 -159 3 -190 24 -265 59 -207 155 -376 296 -515 322 -320 794 -412 1216
-236 229 95 444 298 557 526 80 162 116 312 116 495 0 69 -6 154 -13 190 -61
312 -236 574 -496 742 -177 115 -351 168 -570 174 -96 2 -164 -1 -218 -11z
m397 -305 c224 -57 419 -217 522 -425 62 -127 84 -221 84 -365 0 -144 -22
-238 -84 -365 -102 -207 -291 -362 -521 -426 -110 -31 -304 -32 -416 -1 -97
26 -221 88 -296 148 -413 327 -420 946 -14 1275 206 168 469 225 725 159z"/>
<path d="M20110 20669 c-250 -32 -434 -273 -393 -514 39 -225 222 -385 443
-386 130 -1 226 37 320 127 120 115 167 278 125 439 -22 84 -60 147 -125 209
-105 100 -232 143 -370 125z"/>
<path d="M26996 21315 c-312 -59 -574 -233 -744 -493 -319 -489 -201 -1137
271 -1493 302 -227 726 -282 1075 -137 425 176 692 572 692 1028 0 510 -341
948 -837 1076 -126 33 -338 41 -457 19z m398 -305 c242 -62 463 -260 552 -496
148 -393 -18 -827 -388 -1019 -129 -67 -216 -88 -373 -88 -105 -1 -145 3 -210
21 -238 67 -419 218 -525 437 -61 125 -80 212 -80 357 0 144 25 251 85 367
122 236 346 400 602 441 84 13 245 4 337 -20z"/>
<path d="M27116 20668 c-120 -16 -261 -110 -323 -216 -39 -65 -63 -156 -63
-232 0 -126 49 -238 142 -327 92 -86 189 -125 313 -125 224 2 406 158 446 383
52 292 -213 559 -515 517z"/>
<path d="M17114 20908 c38 -245 214 -421 479 -480 84 -19 134 -21 599 -25
l507 -5 5 24 c3 12 12 58 21 101 20 106 66 239 115 336 22 44 40 83 40 86 0 3
-399 5 -886 5 l-887 0 7 -42z"/>
<path d="M21481 20888 c66 -130 120 -300 144 -450 l6 -38 2043 0 2043 0 17 93
c22 117 73 272 126 376 l40 81 -2225 0 -2225 0 31 -62z"/>
<path d="M28470 20946 c0 -2 22 -50 49 -107 54 -112 94 -240 115 -359 l12 -75
370 -3 c396 -3 567 6 684 39 174 48 301 149 369 292 28 60 61 167 61 201 0 15
-75 16 -830 16 -456 0 -830 -2 -830 -4z"/>
<path d="M13431 29808 c-166 -26 -275 -154 -321 -379 -17 -79 -20 -136 -20
-361 l0 -268 114 0 113 0 6 253 c6 269 13 318 63 404 13 23 44 56 69 74 l45
32 0 123 c0 68 -3 125 -7 127 -5 2 -32 0 -62 -5z"/>
<path d="M14861 29687 l0 -132 42 -30 c58 -42 103 -135 117 -238 5 -43 10
-156 10 -251 0 -96 3 -188 6 -205 l7 -31 108 0 109 0 0 261 c0 278 -8 360 -46
471 -57 168 -161 261 -311 281 l-43 5 1 -131z"/>
<path d="M13670 29700 l0 -110 505 0 505 0 0 110 0 110 -505 0 -505 0 0 -110z"/>
<path d="M13581 29397 c-66 -33 -77 -87 -85 -389 l-5 -218 684 0 685 0 -1 63
c-3 235 -17 445 -33 484 -32 75 -10 73 -653 73 -431 0 -574 -3 -592 -13z"/>
<path d="M11948 28609 c-117 -18 -227 -77 -309 -165 -98 -106 -138 -208 -146
-371 l-6 -113 297 0 296 0 0 73 c0 83 19 125 72 157 30 18 51 20 212 20 165 0
181 -2 214 -22 46 -28 72 -86 72 -165 l0 -63 1525 0 1525 0 0 62 c0 76 28 139
74 168 30 18 50 20 212 20 161 0 182 -2 212 -20 53 -32 72 -74 72 -157 l0 -73
295 0 295 0 0 88 c0 167 -49 291 -157 403 -67 70 -139 115 -233 145 -52 17
-173 18 -2265 19 -1215 1 -2231 -2 -2257 -6z"/>
<path d="M12260 28000 l0 -40 105 0 105 0 0 40 0 40 -105 0 -105 0 0 -40z"/>
<path d="M15880 28000 l0 -40 111 0 110 0 -3 38 -3 37 -107 3 -108 3 0 -41z"/>
<path d="M11490 26648 c0 -935 3 -1145 14 -1199 39 -182 171 -333 349 -398
l72 -26 2255 0 2255 0 65 25 c136 53 241 146 299 265 63 127 61 79 61 1328 l0
1137 -295 0 -295 0 0 -107 c0 -122 -13 -157 -72 -193 -30 -18 -51 -20 -209
-20 -166 0 -178 1 -209 23 -65 44 -75 67 -78 188 l-4 109 -1524 0 -1524 0 0
-97 c0 -118 -19 -168 -79 -201 -36 -20 -53 -22 -206 -22 -186 0 -218 8 -258
64 -19 27 -22 46 -25 144 l-4 112 -294 0 -294 0 0 -1132z m4646 50 c107 -39
186 -110 238 -213 130 -261 -33 -573 -323 -618 -182 -28 -367 71 -452 241 -33
64 -34 71 -34 183 0 113 1 116 38 191 98 200 327 292 533 216z m-956 -406 c19
-15 43 -98 141 -483 65 -255 119 -474 119 -487 0 -36 -43 -72 -86 -72 -28 0
-645 166 -917 246 -34 10 -57 46 -57 87 0 46 -18 26 447 481 243 237 253 246
291 246 23 0 49 -7 62 -18z"/>
<path d="M15910 26535 c-59 -19 -122 -73 -148 -128 -24 -51 -39 -137 -24 -137
18 0 404 206 405 216 2 18 -83 55 -135 60 -31 2 -72 -2 -98 -11z"/>
<path d="M16023 26213 c-111 -58 -200 -110 -197 -115 12 -19 90 -50 139 -55
136 -14 258 85 272 222 3 30 2 55 -3 55 -5 -1 -100 -49 -211 -107z"/>
<path d="M14856 25840 l-216 -215 287 -80 c167 -47 289 -76 291 -70 1 5 -31
138 -72 295 l-74 285 -216 -215z"/>
<path d="M12260 27710 l0 -70 105 0 105 0 0 70 0 70 -105 0 -105 0 0 -70z"/>
<path d="M15880 27710 l0 -70 110 0 110 0 0 70 0 70 -110 0 -110 0 0 -70z"/>
<path d="M7435 27800 c-335 -53 -633 -200 -865 -430 -160 -157 -275 -332 -350
-530 -75 -196 -81 -202 -241 -226 -404 -60 -744 -306 -926 -669 -48 -94 -95
-239 -114 -345 -22 -126 -16 -326 14 -456 57 -248 170 -448 352 -623 172 -165
387 -276 613 -316 96 -17 985 -126 990 -121 1 2 22 167 46 367 43 350 44 365
27 384 -121 136 -540 627 -558 653 -77 114 39 269 174 233 48 -13 70 -36 363
-376 128 -148 239 -269 245 -269 7 1 196 104 421 229 451 252 463 256 542 216
80 -41 106 -155 53 -229 -16 -22 -141 -97 -466 -278 -245 -135 -445 -252 -446
-258 0 -6 -19 -168 -43 -361 -24 -192 -43 -351 -42 -351 1 -1 309 -39 686 -84
757 -91 773 -92 936 -44 314 91 537 339 594 661 20 109 8 278 -25 383 -58 185
-155 318 -318 439 -101 74 -111 134 -48 284 50 117 84 234 106 365 25 151 17
416 -18 562 -72 301 -203 537 -417 750 -218 219 -464 353 -772 421 -106 23
-411 34 -513 19z"/>
<path d="M40132 27295 c-135 -38 -251 -129 -324 -254 -34 -58 -106 -256 -97
-265 5 -5 147 21 160 30 5 3 9 12 9 21 0 34 66 147 116 198 31 31 80 67 121
86 64 32 73 34 178 34 106 0 112 -1 172 -34 130 -70 217 -201 231 -345 l7 -76
74 -35 74 -36 -5 103 c-14 269 -152 473 -376 556 -86 31 -258 40 -340 17z"/>
<path d="M40241 27009 c-83 -16 -158 -75 -201 -159 l-19 -37 132 -6 c150 -7
314 -33 393 -64 41 -16 -11 129 -67 187 -65 67 -150 95 -238 79z"/>
<path d="M39855 26655 c-309 -48 -590 -187 -812 -399 -91 -86 -186 -201 -245
-292 -87 -136 -172 -354 -202 -516 -26 -137 -276 -2039 -276 -2094 0 -164 114
-323 274 -383 78 -29 2236 -314 2336 -309 103 6 177 37 250 104 62 58 99 113
120 179 7 21 56 366 109 765 l97 725 -45 25 c-35 19 -74 61 -159 170 -136 175
-152 204 -152 269 0 61 10 89 49 133 40 46 56 141 48 298 -35 715 -758 1216
-1478 1024 -397 -106 -709 -420 -798 -804 -11 -47 -34 -195 -52 -330 -26 -205
-35 -249 -52 -267 -27 -30 -68 -29 -97 2 l-23 25 37 280 c21 154 48 320 61
368 102 381 422 712 815 840 478 157 1009 33 1361 -318 253 -253 380 -572 366
-922 l-5 -127 46 -23 c29 -14 64 -44 92 -80 38 -48 46 -54 55 -40 5 10 10 97
9 202 0 152 -4 203 -22 286 -137 637 -611 1097 -1239 1204 -133 23 -342 25
-468 5z m159 -2115 c540 -72 992 -134 1006 -137 106 -25 198 -127 220 -243 14
-73 -119 -1068 -151 -1132 -46 -92 -139 -161 -235 -173 -75 -10 -2070 258
-2136 287 -62 26 -140 111 -162 174 -9 26 -16 69 -16 95 0 26 29 269 65 541
61 459 68 497 96 555 50 104 144 162 263 163 39 0 511 -59 1050 -130z"/>
<path d="M38916 24525 c-66 -23 -70 -33 -52 -104 41 -159 125 -244 272 -276
38 -8 417 -60 843 -116 838 -111 818 -110 918 -62 52 24 133 108 162 167 22
45 23 52 10 74 -31 54 -35 55 -1064 192 -539 71 -996 132 -1015 135 -19 2 -53
-2 -74 -10z"/>
<path d="M38780 24220 c0 -8 -22 -184 -50 -390 -27 -206 -50 -392 -50 -414 0
-49 35 -111 77 -137 27 -17 198 -43 1040 -155 555 -74 1023 -133 1041 -130 51
8 99 43 120 89 15 31 34 146 71 427 28 212 51 391 51 398 0 8 -24 -4 -56 -27
-31 -22 -81 -50 -111 -61 -109 -41 -129 -39 -983 74 -437 58 -817 111 -845
117 -105 24 -215 100 -283 194 -13 18 -21 24 -22 15z"/>
<path d="M41307 24942 c-32 -35 -19 -63 96 -212 98 -127 116 -145 144 -148 23
-2 35 3 47 20 9 12 16 28 16 35 0 13 -171 245 -218 296 -30 31 -62 35 -85 9z"/>
<path d="M34704 26891 c-87 -39 -115 -114 -122 -318 l-4 -153 54 0 55 0 5 133
c5 141 13 171 62 216 22 21 26 33 26 83 0 67 -7 70 -76 39z"/>
<path d="M34870 26860 l0 -50 240 0 240 0 0 50 0 50 -240 0 -240 0 0 -50z"/>
<path d="M35440 26852 c0 -50 4 -62 26 -83 49 -45 57 -75 62 -216 l5 -133 54
0 55 0 -4 153 c-6 212 -34 281 -130 322 -63 26 -68 22 -68 -43z"/>
<path d="M34812 26702 c-22 -14 -32 -73 -32 -184 l0 -108 330 0 330 0 0 108
c0 111 -10 170 -32 184 -7 4 -141 8 -298 8 -157 0 -291 -4 -298 -8z"/>
<path d="M33970 26307 c-19 -6 -58 -34 -87 -63 -55 -55 -83 -121 -83 -196 l0
-38 145 0 145 0 0 40 c0 67 22 80 134 80 112 0 134 -12 143 -78 l6 -42 737 0
737 0 6 42 c9 66 31 78 143 78 112 0 134 -13 134 -80 l0 -40 145 0 145 0 0 38
c0 21 -7 63 -16 93 -20 67 -97 148 -160 167 -56 16 -2221 16 -2274 -1z"/>
<path d="M34170 26025 c0 -12 13 -15 55 -15 42 0 55 3 55 15 0 12 -13 15 -55
15 -42 0 -55 -3 -55 -15z"/>
<path d="M35940 26025 c0 -12 13 -15 55 -15 42 0 55 3 55 15 0 12 -13 15 -55
15 -42 0 -55 -3 -55 -15z"/>
<path d="M33802 25348 c3 -557 4 -574 24 -618 26 -58 76 -108 134 -134 45 -21
51 -21 1150 -21 1099 0 1105 0 1150 21 58 26 108 76 134 134 20 44 21 61 24
618 l3 573 -143 -3 -143 -3 -5 -62 c-7 -83 -19 -92 -132 -93 -47 0 -94 3 -103
6 -25 10 -45 58 -45 109 l0 45 -739 0 -739 0 -4 -61 c-6 -88 -23 -99 -142 -99
-117 1 -129 9 -136 93 l-5 62 -143 3 -143 3 3 -573z m2284 36 c82 -39 135
-146 115 -233 -21 -95 -112 -171 -205 -171 -43 0 -118 29 -149 58 -50 45 -76
141 -57 210 13 49 71 119 115 138 42 19 140 17 181 -2z m-477 -202 c18 -34
121 -460 115 -476 -3 -8 -15 -18 -25 -21 -20 -7 -454 110 -476 127 -32 25 -11
55 154 220 135 135 173 168 195 168 16 0 31 -7 37 -18z"/>
<path d="M35944 25301 c-40 -18 -74 -67 -74 -105 0 -17 46 3 160 68 l44 25
-36 16 c-46 19 -44 19 -94 -4z"/>
<path d="M36008 25151 c-49 -25 -88 -49 -88 -52 0 -3 11 -11 25 -17 71 -32
150 11 169 91 8 36 0 34 -106 -22z"/>
<path d="M35445 24970 c-54 -54 -97 -101 -94 -103 6 -5 263 -76 266 -73 2 1
-59 236 -69 267 -2 5 -48 -36 -103 -91z"/>
<path d="M34177 25913 c-4 -3 -7 -19 -7 -35 0 -27 1 -28 55 -28 l55 0 0 35 0
35 -48 0 c-27 0 -52 -3 -55 -7z"/>
<path d="M35947 25914 c-4 -4 -7 -20 -7 -36 0 -27 1 -28 56 -28 l55 0 -3 33
c-3 30 -5 32 -48 35 -25 2 -49 0 -53 -4z"/>
<path d="M34166 23025 c-232 -44 -421 -141 -610 -315 l-78 -72 -52 5 c-28 2
-85 15 -126 27 -64 20 -98 23 -225 23 -134 0 -159 -2 -236 -26 -171 -52 -287
-118 -397 -228 -118 -116 -196 -249 -244 -415 -20 -68 -23 -101 -22 -234 0
-139 3 -164 28 -244 53 -174 153 -332 278 -439 42 -36 679 -449 684 -443 1 0
67 105 147 232 l145 231 -84 304 c-46 167 -84 324 -84 348 0 36 6 49 34 77 26
26 42 34 70 34 48 0 92 -23 110 -58 7 -15 49 -155 91 -312 43 -157 79 -286 79
-287 1 -1 161 8 356 21 195 13 362 21 370 19 62 -19 90 -56 90 -120 0 -44 -20
-77 -58 -97 -19 -9 -137 -21 -382 -36 -195 -12 -365 -23 -377 -26 -15 -3 -60
-66 -159 -221 -75 -120 -137 -223 -138 -230 -1 -15 781 -512 879 -559 71 -33
195 -64 259 -64 74 0 193 31 276 71 66 33 102 59 161 119 121 122 179 261 179
430 0 102 -18 178 -65 279 -22 46 -35 88 -35 114 0 38 6 46 94 133 124 122
187 206 252 339 80 163 105 266 111 455 4 120 2 175 -11 243 -84 445 -404 786
-846 903 -122 33 -343 42 -464 19z"/>
<path d="M13615 22208 c-297 -24 -542 -173 -711 -433 -86 -134 -150 -282 -193
-452 -23 -91 -25 -107 -11 -98 5 3 71 16 147 29 l138 23 22 67 c48 149 121
264 232 369 141 133 289 196 478 205 141 6 231 -13 353 -74 245 -123 407 -380
427 -675 3 -55 10 -99 15 -99 4 0 65 -27 135 -60 69 -33 128 -60 131 -60 9 0
-8 243 -23 328 -109 623 -544 977 -1140 930z"/>
<path d="M13694 21669 c-162 -22 -309 -124 -393 -272 -56 -101 -67 -93 136
-100 262 -9 459 -37 692 -98 62 -16 116 -28 118 -25 10 9 -36 165 -65 223 -94
185 -297 299 -488 272z"/>
<path d="M13145 21044 c-119 -13 -281 -38 -360 -55 -504 -112 -962 -355 -1327
-707 -420 -406 -689 -900 -802 -1477 -12 -59 -471 -3498 -500 -3740 -7 -62 12
-201 40 -284 38 -115 96 -205 193 -301 95 -94 191 -152 316 -189 103 -31 4027
-553 4160 -553 320 -2 604 197 715 501 20 55 37 136 54 263 56 403 326 2448
326 2465 0 14 -16 26 -54 42 -29 12 -71 37 -93 56 -54 46 -449 563 -476 623
-33 73 -31 207 5 284 14 31 48 78 74 105 46 46 48 50 61 138 7 49 16 155 19
235 24 552 -213 1116 -634 1510 -844 792 -2180 783 -2993 -20 -225 -222 -386
-480 -482 -772 -51 -154 -70 -259 -136 -760 -33 -246 -65 -456 -71 -468 -16
-30 -70 -60 -108 -60 -70 0 -122 52 -122 121 0 57 121 942 141 1034 93 423
307 800 628 1107 366 351 824 567 1351 639 153 21 488 16 655 -10 266 -40 484
-109 722 -226 256 -125 432 -252 639 -459 193 -194 329 -384 445 -624 164
-337 239 -731 211 -1097 -7 -85 -15 -161 -18 -169 -4 -10 10 -19 48 -30 80
-23 140 -72 228 -185 43 -55 81 -98 83 -94 14 22 30 261 30 423 -4 1183 -777
2240 -1903 2605 -280 90 -497 125 -805 130 -121 2 -238 1 -260 -1z m82 -3879
c1386 -184 1855 -250 1897 -265 213 -80 356 -284 358 -510 1 -82 -219 -1777
-244 -1880 -17 -70 -77 -178 -134 -239 -103 -111 -239 -170 -391 -171 -65 0
-630 72 -1900 240 -994 133 -1826 245 -1848 251 -74 20 -179 82 -241 145 -82
82 -140 197 -156 311 -12 80 -9 103 106 975 65 491 124 921 132 956 54 242
279 427 525 431 30 1 884 -109 1896 -244z"/>
<path d="M11255 17146 c-22 -7 -59 -25 -83 -41 -50 -33 -51 -42 -22 -165 41
-170 141 -322 267 -406 126 -84 82 -76 1646 -285 1022 -136 1459 -191 1527
-191 169 0 313 63 431 189 64 67 120 150 155 228 l23 53 -27 36 c-34 44 -83
81 -136 101 -44 16 -3628 495 -3699 494 -23 0 -60 -6 -82 -13z"/>
<path d="M10906 15876 c-69 -516 -97 -759 -93 -790 13 -96 96 -204 184 -241
24 -11 701 -105 1873 -261 2027 -270 1879 -255 1988 -193 56 32 108 94 130
157 7 20 56 357 107 747 52 391 97 723 100 738 5 28 4 28 -55 -22 -168 -140
-336 -201 -554 -201 -78 0 -457 47 -1537 190 -789 105 -1463 198 -1498 207
-93 23 -193 66 -270 117 -78 52 -206 182 -246 250 -15 25 -28 46 -28 46 -1 0
-47 -335 -101 -744z"/>
<path d="M15594 17896 c-39 -39 -45 -85 -17 -126 9 -14 101 -136 204 -271 199
-260 217 -277 282 -265 64 12 106 92 76 147 -22 43 -389 518 -412 534 -12 8
-39 15 -60 15 -31 0 -46 -7 -73 -34z"/>
<path d="M40271 21093 c-29 -98 -54 -182 -55 -187 -1 -9 191 -72 199 -64 2 2
27 78 55 169 28 90 53 171 56 181 4 13 -14 22 -95 47 -54 17 -101 31 -103 31
-2 0 -27 -80 -57 -177z"/>
<path d="M41902 21177 c-5 -18 -58 -189 -117 -380 -59 -192 -105 -350 -103
-351 1 -1 19 -7 39 -13 l37 -10 117 379 c64 209 115 381 113 383 -2 2 -20 7
-40 13 -37 10 -38 10 -46 -21z"/>
<path d="M41186 20973 c-3 -16 -28 -99 -55 -185 l-49 -158 100 -31 c55 -17
102 -28 104 -26 12 12 113 361 107 367 -8 7 -182 60 -194 60 -4 0 -9 -12 -13
-27z"/>
<path d="M39690 20826 c-73 -19 -136 -47 -222 -98 -59 -35 -68 -43 -52 -50 10
-4 503 -156 1094 -338 591 -182 1095 -337 1120 -346 26 -10 65 -37 92 -65 77
-79 86 -153 37 -313 -37 -120 -57 -162 -96 -197 -51 -48 -92 -64 -168 -63 -63
1 -206 43 -1398 411 l-1328 410 -135 -111 -135 -111 38 -11 c21 -6 838 -258
1816 -559 978 -301 1781 -544 1784 -541 10 10 -15 945 -27 1006 -18 95 -62
207 -99 256 -74 98 29 62 -1511 534 -195 59 -413 127 -485 150 -149 47 -241
57 -325 36z"/>
<path d="M39077 20435 c-81 -68 -147 -128 -145 -132 2 -9 393 -132 418 -133
11 0 29 46 64 161 26 88 47 161 45 163 -7 6 -212 66 -223 66 -6 -1 -78 -57
-159 -125z"/>
<path d="M39566 20280 c-27 -88 -47 -162 -45 -164 5 -5 329 -103 352 -108 16
-3 26 20 68 156 27 88 46 163 42 166 -9 8 -342 110 -358 110 -6 0 -32 -72 -59
-160z"/>
<path d="M40094 20116 l-50 -163 185 -57 c101 -31 186 -54 189 -52 7 8 102
319 98 323 -4 5 -356 113 -365 113 -4 0 -29 -74 -57 -164z"/>
<path d="M40624 19955 l-51 -165 81 -24 c45 -14 132 -41 195 -60 63 -20 115
-34 116 -33 15 26 95 321 89 327 -7 6 -220 74 -364 116 -12 3 -27 -31 -66
-161z"/>
<path d="M37356 20100 c-45 -14 -94 -68 -117 -129 -27 -71 -37 -301 -20 -473
17 -176 16 -173 64 -185 23 -5 931 -283 2017 -617 2099 -646 2020 -619 2020
-680 0 -41 -37 -76 -78 -76 -21 0 -918 271 -2002 605 -1080 332 -1966 602
-1969 600 -8 -8 21 -161 38 -200 23 -52 69 -96 129 -124 26 -12 992 -312 2147
-666 1155 -355 2210 -680 2345 -722 206 -65 256 -77 315 -78 100 0 132 22 310
215 310 336 457 557 459 689 1 77 -23 116 -99 157 -42 22 -862 279 -2685 839
-1444 444 -2652 815 -2686 825 -81 23 -152 31 -188 20z m4773 -1518 c58 -36
91 -96 91 -169 0 -96 -56 -169 -151 -196 -32 -9 -44 -18 -44 -32 0 -14 17 -24
77 -42 56 -17 83 -31 94 -48 21 -31 12 -69 -21 -91 -23 -15 -30 -14 -111 10
-48 14 -88 25 -89 23 -7 -12 -86 -280 -83 -282 2 -2 86 41 188 96 102 54 194
99 204 99 27 0 66 -39 66 -66 0 -12 -8 -31 -17 -42 -10 -11 -118 -73 -241
-137 -194 -103 -228 -117 -270 -117 -52 0 -99 19 -132 54 -33 36 -250 454
-250 482 0 51 62 83 101 53 9 -7 60 -96 115 -199 54 -102 100 -185 101 -184 1
1 22 66 46 144 l45 142 -72 21 c-95 28 -116 43 -116 78 0 43 10 61 37 72 24 9
33 7 174 -37 25 -7 31 31 8 52 -32 29 -59 97 -59 149 0 161 170 253 309 167z"/>
<path d="M41976 18464 c-25 -25 -30 -61 -12 -89 35 -54 126 -24 126 41 0 52
-77 85 -114 48z"/>
<path d="M41215 19938 c-22 -61 -95 -311 -92 -314 2 -2 86 -29 186 -60 184
-56 214 -60 245 -28 17 17 76 195 76 230 0 35 -10 54 -39 68 -23 12 -352 116
-366 116 -3 0 -8 -6 -10 -12z"/>
<path d="M4490 19691 l-195 -26 -3 -26 c-3 -26 36 -340 43 -347 5 -5 439 50
446 57 5 5 -8 130 -36 329 -7 51 12 50 -255 13z"/>
<path d="M5271 19582 c-47 -25 -73 -76 -68 -130 3 -24 6 -45 8 -47 2 -2 62 4
132 13 l129 16 -7 40 c-8 51 -27 82 -68 106 -40 25 -82 25 -126 2z"/>
<path d="M6220 19325 c-1119 -145 -2053 -269 -2075 -275 -107 -32 -226 -122
-280 -214 -34 -59 -63 -145 -70 -214 -5 -51 35 -416 48 -428 2 -3 388 45 858
106 469 60 859 110 866 110 6 0 38 23 70 51 368 326 901 400 1350 188 45 -22
91 -39 102 -39 23 0 1724 219 1726 223 1 1 -9 83 -21 182 -33 248 -55 311
-144 408 -89 98 -201 153 -329 162 -49 3 -589 -64 -2101 -260z m2065 170 c14
-13 25 -30 25 -37 0 -7 15 -132 34 -277 36 -278 36 -298 -6 -325 -32 -21 -560
-89 -593 -76 -13 5 -30 19 -38 32 -14 22 -78 483 -77 559 0 74 8 78 281 114
310 42 342 43 374 10z m-3284 -525 c13 -18 25 -80 44 -229 27 -215 26 -243
-14 -268 -25 -16 -680 -98 -714 -89 -15 3 -33 16 -41 29 -8 12 -26 112 -41
229 -25 192 -25 208 -11 237 10 17 27 33 42 37 66 17 596 82 653 81 56 -2 66
-5 82 -27z"/>
<path d="M7960 19318 c-80 -11 -146 -21 -148 -23 -5 -4 38 -328 44 -334 5 -6
324 35 331 43 5 5 -18 211 -34 304 -6 38 6 37 -193 10z"/>
<path d="M4608 18791 c-108 -15 -200 -30 -204 -34 -7 -6 11 -185 19 -193 2 -2
107 10 232 26 126 17 230 30 230 30 1 0 -18 154 -25 198 0 5 -63 -2 -252 -27z"/>
<path d="M8085 18529 c-412 -54 -756 -98 -764 -99 -7 0 14 -29 46 -64 67 -71
155 -199 202 -294 147 -293 161 -684 36 -996 -15 -37 -25 -69 -23 -71 2 -3
328 37 724 88 l719 94 -2 29 c-5 70 -175 1381 -181 1395 -6 13 -96 4 -757 -82z"/>
<path d="M6365 18558 c-231 -18 -445 -114 -617 -276 -94 -89 -160 -178 -218
-297 -278 -562 9 -1238 607 -1434 124 -40 233 -55 367 -48 379 18 702 230 872
572 80 161 106 273 107 450 0 260 -78 477 -240 670 -217 257 -537 390 -878
363z m313 -218 c148 -42 327 -155 413 -261 146 -179 206 -357 196 -588 -9
-229 -91 -407 -260 -567 -465 -442 -1238 -214 -1387 410 -24 99 -26 279 -5
379 70 331 354 595 700 651 69 11 271 -3 343 -24z"/>
<path d="M6380 18160 c-86 -11 -139 -29 -223 -72 -140 -73 -252 -206 -304
-362 -23 -69 -27 -98 -27 -196 0 -102 3 -124 30 -200 38 -109 87 -183 175
-264 193 -179 464 -216 709 -98 111 54 224 168 278 282 53 110 77 227 68 329
-24 261 -197 477 -446 555 -87 27 -181 37 -260 26z"/>
<path d="M4608 18082 c-671 -88 -738 -98 -738 -115 0 -35 180 -1410 185 -1416
3 -3 328 37 723 87 394 51 720 92 724 92 4 0 -17 32 -46 70 -107 143 -189 333
-221 514 -19 114 -19 318 0 432 21 115 65 247 119 351 l43 83 -26 -1 c-14 -1
-358 -45 -763 -97z"/>
<path d="M8225 16876 l-780 -101 -105 -105 c-250 -252 -539 -373 -885 -373
-259 0 -479 66 -689 207 l-68 46 -805 -104 c-442 -57 -807 -106 -810 -109 -8
-8 16 -172 34 -237 46 -167 174 -295 342 -342 36 -10 86 -18 111 -18 69 0
4077 518 4143 535 175 46 307 178 352 350 18 71 19 134 3 261 -11 92 -12 94
-37 93 -14 -1 -377 -47 -806 -103z"/>
<path d="M22110 17920 c-160 -16 -312 -67 -450 -152 -121 -73 -268 -224 -340
-347 -82 -140 -128 -158 -254 -101 -194 88 -428 85 -614 -9 -140 -71 -260
-190 -326 -325 -44 -89 -65 -168 -73 -273 -9 -128 -43 -167 -155 -183 -183
-26 -338 -114 -444 -251 -98 -127 -152 -303 -140 -451 23 -276 196 -496 461
-586 l80 -27 1830 0 1830 0 85 23 c181 50 323 135 451 270 238 251 320 616
209 937 -129 374 -484 635 -864 635 -135 0 -172 23 -207 129 -79 239 -247 447
-467 575 -176 104 -409 155 -612 136z"/>
<path d="M32280 17711 c-3488 -6 -3678 -7 -3734 -24 -186 -56 -279 -127 -796
-607 -157 -146 -331 -307 -387 -358 -117 -108 -139 -142 -117 -184 36 -70 279
-301 735 -700 263 -230 351 -298 444 -342 147 -71 -201 -65 3958 -67 2636 -2
3761 1 3768 8 33 33 -62 122 -892 841 -141 122 -260 229 -263 238 -13 34 -6
92 15 118 12 15 173 158 358 319 597 517 791 696 791 729 0 22 -14 26 -116 30
-49 2 -1743 2 -3764 -1z m-3680 -1081 l0 -390 180 0 180 0 0 -100 0 -100 -280
0 -280 0 0 483 c0 266 3 487 7 490 3 4 48 7 100 7 l93 0 0 -390z m1030 290 l0
-100 -195 0 -195 0 0 -95 0 -95 195 0 195 0 0 -100 0 -100 -195 0 -195 0 0
-95 0 -95 195 0 195 0 0 -100 0 -100 -295 0 -295 0 0 490 0 490 295 0 295 0 0
-100z m830 0 l0 -100 -135 0 -135 0 0 -390 0 -390 -100 0 -100 0 -2 388 -3
387 -137 3 -138 3 0 93 c0 51 3 96 7 99 3 4 172 7 375 7 l368 0 0 -100z m199
85 c53 -27 54 -73 5 -161 -31 -56 -39 -64 -65 -64 -32 0 -34 5 -19 45 9 23 6
32 -15 57 -14 16 -25 39 -25 52 0 28 26 65 54 76 29 12 33 12 65 -5z m579 -16
c58 -20 142 -65 142 -77 0 -4 -31 -38 -69 -76 l-68 -68 -32 16 c-54 28 -128
38 -166 22 -39 -17 -55 -42 -55 -88 0 -62 46 -90 165 -102 110 -12 187 -63
238 -160 31 -60 30 -183 -2 -246 -68 -131 -198 -190 -356 -161 -71 13 -167 57
-215 99 l-35 31 69 69 69 70 36 -23 c110 -73 220 -70 251 5 30 72 -17 116
-136 129 -134 14 -210 66 -262 180 -21 46 -24 64 -20 130 5 84 20 121 75 182
85 94 223 119 371 68z m1212 21 c68 -11 184 -62 235 -105 l30 -25 -72 -72
c-67 -67 -73 -71 -90 -56 -29 25 -78 47 -132 59 -97 20 -228 -34 -282 -118
-100 -151 -52 -340 105 -420 105 -53 230 -37 321 42 l40 34 -117 1 -118 0 0
100 0 100 245 0 245 0 0 -43 c0 -111 -54 -231 -145 -323 -254 -257 -689 -151
-805 196 -18 54 -21 82 -18 170 3 96 6 111 39 180 74 153 203 252 364 279 70
12 82 12 155 1z m1100 -16 c126 -36 237 -133 298 -262 33 -69 37 -87 40 -175
5 -121 -14 -203 -68 -285 -139 -214 -400 -289 -627 -181 -77 37 -176 131 -215
205 -130 243 -32 547 213 668 117 57 229 66 359 30z m860 -329 l0 -355 -100 0
-100 0 0 355 0 355 100 0 100 0 0 -355z m280 0 l0 -355 -100 0 -100 0 0 355 0
355 100 0 100 0 0 -355z m-331 -439 c30 -16 51 -53 51 -92 0 -35 -59 -94 -95
-94 -57 0 -104 45 -105 98 0 43 14 68 48 86 35 19 66 20 101 2z m302 -15 c64
-64 16 -171 -76 -171 -38 0 -95 59 -95 97 1 91 108 137 171 74z"/>
<path d="M33347 16809 c-94 -22 -182 -99 -211 -186 -66 -193 89 -396 289 -380
155 12 268 136 266 292 -1 130 -87 236 -218 270 -63 17 -72 17 -126 4z"/>
<path d="M26082 14677 c-129 -47 -182 -185 -182 -474 l0 -163 74 0 74 0 4 173
c4 193 17 239 76 289 31 26 32 29 32 107 0 78 -1 81 -22 80 -13 0 -38 -6 -56
-12z"/>
<path d="M26280 14620 l0 -70 325 0 325 0 0 70 0 70 -325 0 -325 0 0 -70z"/>
<path d="M27040 14612 c0 -76 2 -83 25 -98 14 -9 38 -37 52 -62 25 -43 28 -57
37 -229 l9 -183 69 0 70 0 -4 208 c-3 183 -6 213 -25 261 -45 110 -102 163
-191 177 l-42 7 0 -81z"/>
<path d="M26207 14410 c-30 -24 -33 -43 -42 -242 l-7 -138 441 0 441 0 0 135
c0 156 -12 229 -43 250 -18 13 -79 15 -393 15 -358 0 -372 -1 -397 -20z"/>
<path d="M25130 13904 c-155 -42 -260 -185 -260 -355 l0 -59 190 0 190 0 0 51
c0 99 31 119 191 119 l111 0 34 -34 c30 -30 34 -40 34 -85 l0 -51 985 0 985 0
0 51 c0 99 31 119 189 119 107 0 112 -1 142 -28 27 -24 33 -37 37 -85 l4 -57
184 0 184 0 0 75 c0 143 -69 254 -198 317 l-67 33 -1440 2 c-1243 2 -1448 0
-1495 -13z"/>
<path d="M25362 13518 c3 -21 9 -23 71 -26 66 -3 67 -3 67 23 0 24 -2 25 -71
25 -67 0 -70 -1 -67 -22z"/>
<path d="M27702 13518 c3 -21 9 -23 71 -26 66 -3 67 -3 67 23 0 24 -2 25 -71
25 -67 0 -70 -1 -67 -22z"/>
<path d="M24872 12623 l3 -758 29 -62 c33 -73 103 -144 174 -176 l47 -22 1462
-3 c1460 -2 1462 -2 1517 19 82 30 146 85 186 160 l35 64 3 768 2 767 -184 0
-184 0 -4 -76 c-3 -71 -6 -78 -36 -105 -32 -29 -34 -29 -153 -29 -120 0 -121
0 -150 29 -27 27 -29 35 -29 105 l0 76 -985 0 -985 0 0 -66 c0 -73 -18 -115
-57 -133 -13 -6 -76 -11 -139 -11 -114 0 -116 0 -145 29 -27 27 -29 35 -29
105 l0 76 -190 0 -190 0 2 -757z m2984 62 c106 -31 183 -130 192 -246 6 -86
-14 -145 -72 -207 -52 -57 -106 -84 -182 -90 -194 -15 -344 166 -290 350 45
156 197 239 352 193z m-608 -264 c16 -10 32 -62 113 -386 64 -256 66 -278 17
-290 -26 -7 -589 147 -625 171 -15 9 -23 25 -23 42 0 22 40 66 227 249 230
224 251 240 291 214z"/>
<path d="M27705 12566 c-54 -24 -95 -85 -95 -141 0 -24 5 -22 130 43 71 37
130 70 130 74 0 15 -60 38 -97 38 -21 -1 -51 -7 -68 -14z"/>
<path d="M27798 12367 c-65 -35 -120 -66 -124 -69 -3 -4 9 -14 27 -23 68 -36
180 -3 213 63 20 41 28 92 13 92 -6 0 -65 -29 -129 -63z"/>
<path d="M27038 12123 c-70 -70 -125 -130 -120 -134 14 -14 363 -106 358 -95
-2 6 -23 89 -47 184 -24 94 -48 172 -53 172 -5 0 -67 -57 -138 -127z"/>
<path d="M25360 13335 l0 -45 70 0 70 0 0 45 0 45 -70 0 -70 0 0 -45z"/>
<path d="M27700 13335 l0 -45 70 0 70 0 0 45 0 45 -70 0 -70 0 0 -45z"/>
<path d="M31966 14538 c-2 -7 -11 -62 -20 -123 -9 -60 -19 -119 -21 -131 -5
-22 -1 -23 315 -71 l36 -5 21 139 c12 76 18 142 14 146 -7 7 -286 56 -324 57
-10 0 -19 -6 -21 -12z"/>
<path d="M32661 14266 c-29 -16 -50 -52 -51 -86 0 -25 4 -26 99 -41 l99 -15 5
31 c14 89 -75 154 -152 111z"/>
<path d="M31605 14102 c-104 -36 -195 -124 -231 -223 -13 -35 -66 -332 -61
-335 1 0 307 -48 680 -106 l679 -106 73 34 c327 151 733 90 1022 -155 l72 -61
672 -105 c370 -57 674 -103 675 -102 9 9 44 263 44 319 0 156 -109 307 -254
352 -76 24 -3184 506 -3258 506 -35 -1 -85 -8 -113 -18z m449 -142 c142 -23
267 -45 277 -51 10 -5 22 -21 25 -34 6 -25 -32 -300 -47 -343 -16 -43 -42 -43
-305 -1 -304 47 -290 44 -309 73 -14 21 -13 38 12 190 21 134 30 172 47 187
11 11 25 19 31 19 5 0 127 -18 269 -40z m2658 -341 c189 -30 210 -36 228 -69
13 -25 -56 -449 -77 -472 -9 -10 -30 -18 -48 -18 -48 0 -416 60 -437 71 -10 5
-21 21 -24 35 -9 35 54 433 72 462 19 30 50 29 286 -9z"/>
<path d="M31842 13779 c-6 -41 -8 -77 -4 -80 4 -3 72 -16 152 -28 80 -12 157
-24 171 -27 32 -6 35 0 44 88 l7 65 -143 22 c-79 12 -160 25 -180 28 l-36 5
-11 -73z"/>
<path d="M34517 13398 c-26 -171 -38 -152 111 -176 70 -11 128 -19 129 -18 1
1 9 46 17 101 9 55 18 114 21 131 l5 32 -112 17 c-62 9 -122 19 -134 21 -19 5
-21 -3 -37 -108z"/>
<path d="M31285 13368 c-2 -7 -40 -249 -85 -538 -44 -289 -83 -534 -85 -546
-4 -19 17 -23 556 -108 309 -48 563 -85 565 -83 2 2 -3 21 -11 41 -62 148 -78
401 -36 570 23 96 89 245 142 323 18 26 60 76 93 111 32 34 55 62 50 62 -5 0
-268 41 -584 90 -316 49 -581 90 -588 90 -7 0 -14 -6 -17 -12z"/>
<path d="M33025 13279 c-79 -12 -188 -45 -250 -76 -176 -88 -325 -252 -394
-432 -42 -109 -55 -182 -54 -301 2 -229 88 -418 263 -584 66 -61 104 -87 184
-126 139 -67 214 -84 361 -84 94 0 138 5 200 23 286 80 496 289 577 576 29
104 31 296 4 395 -67 245 -220 432 -436 534 -139 66 -321 96 -455 75z m270
-165 c113 -27 202 -79 296 -173 69 -69 94 -103 128 -171 94 -192 92 -399 -4
-590 -135 -268 -445 -410 -743 -339 -26 6 -85 29 -132 51 -114 54 -237 176
-292 288 -57 116 -71 183 -66 324 5 142 25 212 93 321 153 245 434 358 720
289z"/>
<path d="M32990 12951 c-89 -29 -141 -60 -206 -125 -97 -97 -144 -210 -144
-346 0 -129 45 -245 132 -336 100 -106 216 -157 358 -156 248 0 438 161 487
410 15 75 15 89 0 163 -22 115 -58 182 -141 265 -74 73 -129 106 -219 130 -72
19 -200 17 -267 -5z"/>
<path d="M33980 12956 c0 -2 15 -36 34 -77 64 -137 80 -223 80 -404 -1 -132
-5 -174 -23 -240 -27 -100 -106 -261 -166 -340 -27 -36 -40 -61 -33 -62 94
-18 1112 -173 1115 -170 7 8 176 1107 171 1112 -5 5 -1139 185 -1165 185 -7 0
-13 -2 -13 -4z"/>
<path d="M31087 12094 c-12 -22 -28 -189 -22 -231 19 -129 97 -238 208 -293
58 -28 154 -45 1662 -280 880 -137 1618 -250 1641 -250 57 0 140 26 196 62
108 68 163 170 183 339 7 56 7 56 -22 61 -15 3 -297 48 -627 99 l-598 93 -37
-22 c-80 -50 -221 -112 -300 -132 -353 -89 -750 36 -974 308 l-47 58 -598 93
c-328 51 -611 95 -628 98 -17 3 -34 1 -37 -3z"/>
<path d="M38578 13770 c-360 -91 -608 -405 -611 -770 -1 -119 12 -192 54 -301
89 -231 287 -409 536 -481 65 -19 102 -23 218 -23 132 1 146 3 235 33 137 47
220 100 325 206 102 103 167 213 205 346 115 415 -124 846 -545 980 -102 32
-309 38 -417 10z"/>
<path d="M16547 13000 c-3 -8 -134 -514 -291 -1125 l-285 -1110 249 -250 250
-250 0 962 c0 684 3 969 11 986 22 49 86 61 124 22 l25 -24 0 -978 0 -978 253
253 252 252 -27 103 c-37 144 -221 858 -398 1547 -83 322 -152 590 -154 595
-2 6 -6 3 -9 -5z"/>
<path d="M17064 11693 c2 -10 48 -189 102 -398 53 -209 99 -382 101 -385 4 -5
433 421 433 431 0 8 -114 99 -185 147 -118 80 -237 140 -392 198 -58 22 -64
23 -59 7z"/>
<path d="M15960 11679 c-156 -55 -397 -196 -508 -296 l-53 -48 219 -218 218
-218 102 394 c56 217 102 397 102 401 0 10 -21 6 -80 -15z"/>
<path d="M15236 11168 c-69 -77 -170 -232 -226 -345 -46 -95 -104 -242 -97
-249 4 -5 790 197 799 205 4 4 -91 105 -211 225 l-218 218 -47 -54z"/>
<path d="M17595 11000 c-144 -145 -214 -221 -204 -224 46 -16 795 -204 798
-200 7 7 -51 159 -96 249 -25 50 -70 128 -100 174 -57 87 -161 221 -172 221
-3 0 -105 -99 -226 -220z"/>
<path d="M15560 10569 c-341 -89 -617 -161 -1352 -350 -329 -84 -598 -156
-598 -159 0 -3 505 -135 1122 -293 l1121 -289 276 276 276 276 -971 0 c-967 0
-971 0 -998 21 -34 27 -37 88 -4 119 22 20 30 20 947 20 l926 0 -225 225
c-124 124 -232 225 -240 224 -8 -1 -134 -32 -280 -70z"/>
<path d="M17020 10415 l-225 -225 928 0 928 0 24 -25 c16 -15 25 -36 25 -55 0
-19 -9 -40 -25 -55 l-24 -25 -973 0 -973 0 276 -276 275 -275 1115 287 c613
157 1117 289 1121 293 5 5 -2224 583 -2242 582 -3 -1 -106 -102 -230 -226z"/>
<path d="M16217 9612 l-248 -248 287 -1115 c157 -613 289 -1119 293 -1126 5
-10 582 2203 581 2232 0 6 -112 123 -250 260 l-250 250 0 -926 c0 -868 -1
-928 -17 -948 -29 -34 -74 -37 -109 -8 l-29 25 -5 926 -5 926 -248 -248z"/>
<path d="M14934 9482 c55 -160 160 -348 277 -495 l63 -78 217 217 c120 120
217 219 216 220 -1 1 -171 45 -377 98 -206 53 -385 99 -397 102 l-23 6 24 -70z"/>
<path d="M17783 9447 l-393 -102 218 -218 217 -218 43 48 c103 115 215 303
281 470 42 104 47 124 34 122 -5 0 -185 -46 -400 -102z"/>
<path d="M15606 9011 l-218 -218 84 -67 c149 -121 322 -218 497 -280 66 -24
73 -25 69 -9 -51 209 -204 793 -208 793 -3 0 -103 -98 -224 -219z"/>
<path d="M17270 9230 c0 -3 -47 -185 -104 -405 -57 -220 -102 -401 -101 -403
5 -5 177 63 245 98 101 50 177 98 275 171 147 109 158 71 -95 324 -121 121
-220 218 -220 215z"/>
<path d="M8515 13025 c-186 -31 -361 -89 -510 -170 -592 -322 -911 -994 -784
-1650 58 -303 203 -579 419 -796 137 -138 303 -258 417 -301 28 -10 61 12
1123 757 602 422 1097 769 1100 772 11 10 -35 229 -71 338 -178 536 -605 916
-1164 1035 -133 28 -401 36 -530 15z"/>
<path d="M10000 11243 c-151 -107 -283 -199 -293 -206 -16 -11 -6 -33 111
-265 l128 -252 45 62 c134 185 225 397 269 625 18 94 28 219 19 227 -2 1 -128
-85 -279 -191z"/>
<path d="M9274 10734 c-153 -108 -283 -199 -287 -204 -6 -5 192 -225 379 -419
l23 -25 73 39 c96 49 227 140 305 210 l63 56 -105 207 c-57 114 -119 235 -137
269 l-34 63 -280 -196z"/>
<path d="M10312 10825 c-51 -123 -151 -293 -227 -388 -30 -37 -55 -71 -55 -75
0 -5 88 -182 196 -395 l195 -387 75 52 c51 34 74 57 71 67 -2 9 -48 289 -103
623 -54 335 -101 608 -104 608 -3 0 -24 -47 -48 -105z"/>
<path d="M8547 10225 l-287 -203 52 -15 c153 -43 266 -58 428 -58 74 0 169 5
210 11 90 13 239 47 259 59 10 7 -32 58 -175 210 -104 111 -191 201 -194 200
-3 0 -134 -92 -293 -204z"/>
<path d="M9829 10176 c-80 -66 -179 -133 -266 -182 -29 -16 -52 -32 -50 -36 1
-3 130 -142 286 -308 185 -196 288 -299 298 -296 7 3 53 34 102 68 l88 63
-142 285 c-79 157 -165 326 -192 377 l-48 91 -76 -62z"/>
<path d="M9257 9865 c-122 -43 -262 -67 -431 -74 l-160 -6 545 -305 c299 -167
555 -311 570 -319 24 -13 29 -12 97 35 39 27 70 52 69 56 -6 18 -593 633 -606
635 -9 1 -47 -9 -84 -22z"/>
<path d="M10788 9637 c-319 -214 -1058 -743 -1067 -763 -17 -38 -13 -83 10
-120 11 -19 23 -34 26 -34 3 0 73 48 156 107 84 58 181 127 217 152 36 24 164
114 285 200 121 85 249 175 285 199 135 94 295 206 299 208 9 7 -41 72 -64 82
-46 21 -81 14 -147 -31z"/>
<path d="M11366 9670 c-67 -21 -108 -97 -87 -162 18 -55 52 -81 115 -86 50 -4
56 -2 91 29 69 64 55 168 -29 209 -46 22 -48 22 -90 10z"/>
<path d="M11024 9439 c-32 -23 -63 -45 -67 -49 -5 -4 16 -32 46 -62 56 -56 87
-123 87 -188 0 -53 -30 -127 -70 -173 -56 -64 -109 -87 -197 -87 -122 0 -215
66 -252 180 l-17 51 -94 -67 c-52 -37 -96 -67 -97 -68 -2 -1 16 -16 40 -32 84
-60 124 -181 94 -285 -58 -195 -308 -254 -445 -105 -21 23 -47 64 -57 92 -10
27 -20 51 -21 52 -3 5 -134 -88 -134 -95 0 -12 326 -471 349 -490 18 -16 39
-23 66 -23 37 0 87 33 590 385 303 212 558 395 568 406 10 13 17 38 17 63 0
43 13 22 -275 433 l-72 103 -59 -41z"/>
<path d="M10774 9260 c-29 -12 -71 -64 -79 -99 -4 -20 0 -45 13 -74 42 -95
168 -103 222 -14 63 103 -44 232 -156 187z"/>
<path d="M10179 8845 c-99 -54 -78 -206 33 -236 32 -8 46 -6 82 10 127 56 87
242 -51 241 -21 -1 -50 -7 -64 -15z"/>
<path d="M9620 8449 c-100 -40 -114 -174 -23 -230 81 -50 193 9 193 103 0 55
-30 105 -75 124 -39 16 -60 17 -95 3z"/>
<path d="M23333 11207 c-28 -6 -43 -15 -43 -25 0 -13 70 -292 74 -299 4 -5
104 25 123 38 36 22 47 61 34 116 -32 131 -41 153 -71 168 -32 17 -56 17 -117
2z"/>
<path d="M22762 11060 c-189 -49 -346 -90 -348 -93 -4 -4 65 -297 72 -306 3
-4 725 178 732 184 2 2 -14 71 -35 154 -33 133 -40 151 -58 150 -11 0 -175
-40 -363 -89z"/>
<path d="M22232 10914 c-41 -29 -45 -59 -21 -158 25 -102 50 -136 99 -136 16
0 30 5 30 10 0 23 -73 300 -79 300 -4 0 -17 -7 -29 -16z"/>
<path d="M23492 10762 c-53 -14 -91 -30 -89 -36 2 -6 32 -123 67 -261 35 -137
64 -251 64 -252 4 -7 227 61 246 75 33 24 60 79 60 122 0 53 -61 278 -84 313
-28 40 -81 67 -131 66 -22 0 -82 -12 -133 -27z"/>
<path d="M22885 10607 c-192 -49 -352 -92 -355 -94 -6 -5 120 -504 129 -515 6
-7 717 168 730 179 3 2 -74 317 -121 491 -5 17 -14 31 -21 31 -7 -1 -169 -42
-362 -92z m345 -157 c25 -25 26 -74 2 -98 -12 -12 -99 -39 -247 -76 -228 -57
-229 -57 -254 -38 -35 26 -41 84 -11 109 22 19 402 120 458 122 20 1 40 -7 52
-19z"/>
<path d="M22257 10447 c-136 -34 -176 -61 -198 -136 -12 -41 -11 -54 20 -175
39 -151 49 -174 90 -209 49 -41 89 -42 226 -7 l122 32 -66 259 c-37 142 -69
260 -71 262 -3 2 -58 -10 -123 -26z"/>
<path d="M23865 10143 c-11 -2 -369 -94 -795 -203 -426 -109 -799 -208 -828
-219 -95 -38 -154 -72 -203 -118 -60 -56 -88 -104 -128 -216 -33 -94 -46 -179
-82 -527 -35 -341 -67 -445 -170 -549 -54 -53 -118 -90 -253 -146 -147 -60
-196 -105 -250 -226 -57 -130 -68 -289 -41 -583 8 -87 16 -160 17 -161 2 -1
176 43 388 98 267 68 388 104 394 115 20 35 92 104 147 141 157 105 358 127
531 57 l59 -24 935 239 936 240 76 78 c167 170 388 223 611 146 l79 -28 134
33 c73 18 143 37 155 41 l21 8 -39 156 c-52 206 -55 201 142 250 72 18 133 35
135 38 13 13 -95 185 -158 253 -57 62 -112 98 -188 124 -58 20 -75 21 -240 14
-164 -6 -182 -5 -247 14 -85 26 -176 85 -238 154 -50 55 -146 190 -305 428
-127 189 -224 291 -324 340 -61 30 -79 34 -160 36 -50 2 -100 0 -111 -3z m116
-207 c76 -17 141 -57 221 -134 78 -75 130 -148 258 -362 124 -207 140 -242
140 -313 0 -89 -44 -158 -131 -202 -15 -8 -304 -84 -641 -169 -556 -140 -868
-220 -1363 -351 -184 -49 -260 -56 -323 -30 -51 22 -81 52 -108 110 -21 43
-24 65 -24 160 1 188 18 456 35 540 33 162 120 295 227 347 29 14 199 62 378
108 179 45 525 134 770 196 245 62 459 114 475 114 17 0 55 -6 86 -14z m-571
-1583 c24 -31 20 -68 -10 -94 -19 -17 -331 -99 -374 -99 -32 0 -66 36 -66 70
0 47 35 66 200 108 192 50 221 51 250 15z"/>
<path d="M23845 9795 c-5 -2 -155 -41 -332 -86 -179 -45 -323 -87 -323 -93 0
-10 201 -808 205 -814 4 -6 972 239 1008 255 46 20 61 45 53 87 -9 43 -238
423 -304 502 -56 69 -121 121 -175 141 -30 11 -110 16 -132 8z"/>
<path d="M22715 9506 c-176 -46 -337 -88 -358 -95 -82 -27 -141 -120 -172
-265 -17 -85 -39 -509 -29 -568 6 -40 43 -78 75 -78 10 0 96 20 191 45 669
174 821 214 826 219 6 6 -196 807 -207 817 -3 4 -150 -30 -326 -75z"/>
<path d="M25800 8621 c-104 -27 -105 -28 -104 -57 1 -16 11 -66 24 -110 l22
-81 96 24 c165 41 172 43 172 55 0 18 -88 198 -97 197 -4 0 -55 -13 -113 -28z"/>
<path d="M25738 8222 c-164 -42 -298 -80 -298 -85 0 -4 13 -25 29 -45 16 -20
40 -57 52 -82 12 -25 23 -46 24 -48 2 -1 81 18 176 43 108 28 191 56 219 73
63 39 100 95 107 165 3 31 2 57 -3 56 -5 0 -143 -35 -306 -77z"/>
<path d="M24923 8165 c-225 -50 -374 -276 -329 -494 72 -347 485 -470 725
-216 214 226 130 584 -163 694 -74 27 -158 33 -233 16z m223 -130 c64 -28 123
-86 155 -151 20 -41 24 -64 24 -139 0 -81 -3 -95 -30 -144 -105 -191 -357
-228 -510 -76 -175 176 -81 482 165 536 53 11 139 0 196 -26z"/>
<path d="M24930 7897 c-136 -72 -109 -277 41 -317 120 -33 242 88 210 208 -31
113 -147 164 -251 109z"/>
<path d="M23635 7684 c-434 -111 -800 -206 -813 -209 -22 -5 -22 -6 11 -49 18
-24 44 -64 57 -90 14 -25 29 -46 35 -46 5 1 348 87 760 193 l750 192 7 93 c3
51 9 99 12 107 3 10 -1 15 -12 14 -9 -1 -372 -93 -807 -205z"/>
<path d="M22247 7479 c-153 -52 -259 -177 -289 -339 -29 -154 54 -335 197
-430 49 -33 151 -60 225 -60 223 0 406 169 427 394 6 68 -13 159 -48 227 -26
51 -101 134 -151 165 -101 64 -249 82 -361 43z m271 -118 c65 -33 118 -87 149
-149 24 -48 28 -70 28 -137 0 -94 -21 -148 -81 -215 -121 -134 -347 -134 -468
0 -60 66 -80 121 -80 215 0 59 5 92 20 126 37 81 105 143 193 176 55 20 185
12 239 -16z"/>
<path d="M22325 7239 c-102 -33 -147 -158 -90 -255 28 -48 91 -84 145 -84 126
0 212 148 149 259 -38 69 -129 105 -204 80z"/>
<path d="M21491 7136 c-173 -45 -316 -86 -318 -92 -6 -19 54 -90 93 -109 74
-36 143 -32 353 20 l191 48 0 71 c0 39 3 88 6 109 4 20 3 36 -2 36 -5 -1 -150
-38 -323 -83z"/>
<path d="M30156 10249 c-157 -20 -496 -104 -479 -119 4 -4 276 -103 603 -220
327 -117 617 -224 643 -237 65 -32 124 -93 156 -162 22 -48 26 -69 25 -146 0
-84 -4 -100 -58 -245 -77 -209 -113 -261 -221 -318 -45 -24 -61 -27 -150 -27
l-100 0 -1015 366 c-940 339 -1016 365 -1032 350 -33 -31 -106 -172 -138 -269
-44 -130 -51 -251 -22 -372 98 -409 529 -927 1057 -1273 235 -153 430 -231
895 -356 339 -91 1226 -298 1236 -288 2 1 -31 54 -72 116 -140 209 -186 294
-416 754 -158 316 -228 467 -228 490 0 71 62 108 141 83 79 -25 1752 -627
1785 -642 38 -18 26 8 304 -659 106 -253 193 -461 195 -463 5 -5 450 -84 1035
-184 506 -87 543 -92 680 -92 124 0 153 3 204 22 117 43 211 123 268 228 21
40 311 833 489 1339 61 173 51 253 -36 295 -49 24 -66 25 -131 5 -79 -23 -160
-82 -305 -221 -178 -169 -231 -213 -379 -309 -291 -191 -370 -224 -552 -232
-277 -13 -503 84 -853 366 -381 306 -607 512 -1325 1206 -649 628 -871 829
-1050 956 -293 207 -508 271 -910 268 -96 -1 -206 -6 -244 -10z"/>
<path d="M29260 9978 c-230 -102 -560 -282 -560 -307 0 -9 629 -235 636 -229
2 3 46 122 97 265 l94 261 -76 26 c-42 14 -80 26 -86 26 -5 0 -53 -19 -105
-42z"/>
<path d="M29623 9641 c-51 -142 -93 -262 -93 -267 0 -5 55 -28 123 -52 67 -24
170 -61 228 -82 l107 -38 92 258 c51 143 93 263 92 267 0 6 -299 119 -442 168
-12 4 -35 -52 -107 -254z"/>
<path d="M30272 9399 c-52 -143 -92 -262 -90 -264 2 -2 105 -40 228 -84 140
-50 240 -81 265 -81 44 0 96 27 119 62 24 36 116 307 116 339 0 36 -20 76 -52
106 -19 18 -457 183 -485 183 -4 0 -50 -117 -101 -261z"/>
<path d="M34202 9636 c-80 -20 -172 -70 -463 -248 -146 -90 -406 -248 -577
-353 l-313 -190 131 -127 c228 -222 501 -464 805 -713 l119 -98 26 30 c14 16
115 132 225 258 512 583 905 1085 905 1154 0 34 -55 88 -127 124 -75 38 -288
116 -393 143 -116 31 -262 40 -338 20z"/>
<path d="M31227 7931 c128 -268 258 -514 335 -636 152 -240 630 -923 759
-1086 182 -230 469 -492 622 -569 152 -76 304 -54 356 54 27 56 27 116 -3 246
-37 162 -81 288 -170 490 -45 102 -171 399 -281 661 l-198 476 -381 136 c-210
75 -548 197 -752 270 l-371 133 84 -175z"/>
<path d="M18637 7320 c-224 -43 -411 -80 -414 -84 -8 -7 16 -144 26 -150 7 -4
830 148 858 158 14 6 12 36 -8 119 -8 29 -14 37 -32 36 -12 -1 -206 -36 -430
-79z"/>
<path d="M19027 7113 c-12 -3 -15 -11 -12 -26 3 -12 39 -204 80 -427 87 -468
83 -450 93 -450 37 1 36 11 -49 464 -46 245 -86 445 -89 445 -3 -1 -13 -3 -23
-6z"/>
<path d="M18698 7052 c-135 -25 -188 -39 -188 -49 0 -18 161 -877 165 -881 3
-4 386 66 391 71 3 2 -147 817 -161 875 -3 12 -9 22 -13 21 -4 0 -91 -17 -194
-37z"/>
<path d="M18355 6968 c3 -13 39 -205 80 -428 41 -223 77 -415 80 -427 6 -25
33 -31 41 -9 3 7 -31 207 -75 443 -45 236 -81 433 -81 436 0 4 -11 7 -25 7
-21 0 -25 -4 -20 -22z"/>
<path d="M18889 6046 c-401 -76 -723 -141 -745 -152 -82 -39 -148 -131 -160
-226 -7 -54 314 -1774 344 -1841 38 -85 126 -150 224 -163 59 -8 1430 248
1503 280 100 45 165 143 165 248 0 78 -316 1759 -342 1820 -23 55 -82 112
-142 138 -87 39 -97 38 -847 -104z m713 -253 c10 -12 64 -277 152 -748 75
-401 136 -736 136 -744 0 -23 -31 -51 -55 -51 -12 0 -29 8 -37 18 -10 11 -64
276 -152 747 -75 402 -136 738 -136 747 0 43 63 64 92 31z m-599 -108 c9 -8
18 -27 21 -42 38 -186 266 -1427 266 -1449 0 -17 -5 -35 -12 -42 -17 -17 -63
-15 -78 3 -7 8 -75 349 -152 756 -129 692 -138 743 -123 765 18 27 56 32 78 9z
m-599 -108 c13 -10 47 -172 157 -761 134 -714 140 -749 123 -767 -19 -22 -66
-25 -82 -6 -11 13 -282 1442 -282 1488 0 49 45 74 84 46z"/>
<path d="M19881 3788 l-103 -20 6 -44 c7 -57 32 -93 73 -110 42 -18 58 -18 99
2 55 26 78 96 58 172 -7 26 1 26 -133 0z"/>
<path d="M18762 3578 l-103 -20 7 -37 c15 -81 59 -126 124 -126 79 0 126 63
115 151 -7 62 3 60 -143 32z"/>
<path d="M26605 6044 c-135 -30 -264 -93 -374 -183 -102 -83 -222 -271 -252
-396 -27 -111 -70 -145 -161 -126 -188 41 -380 -18 -518 -158 -143 -144 -196
-322 -159 -525 17 -92 3 -114 -114 -170 -77 -37 -105 -57 -159 -115 -140 -148
-185 -335 -125 -524 31 -96 73 -162 145 -228 105 -96 243 -145 382 -137 100 7
2760 684 2857 728 184 84 327 239 394 430 41 116 55 230 40 336 -44 317 -249
550 -561 639 -87 25 -272 26 -352 2 -31 -9 -66 -17 -78 -17 -32 0 -75 28 -95
64 -37 63 -112 150 -175 203 -72 60 -232 143 -325 168 -88 24 -284 28 -370 9z"/>
</g>
</svg>
