<svg width="40" height="42" viewBox="0 0 40 42" fill="none" xmlns="http://www.w3.org/2000/svg">
<path d="M15.2173 10H24.7825C27.6639 10 29.9999 12.3359 29.9999 15.2174C29.9999 15.6496 29.6495 16 29.2173 16H10.7825C10.3503 16 9.99988 15.6496 9.99988 15.2174C9.99988 12.3359 12.3358 10 15.2173 10Z" stroke="black" stroke-width="3" stroke-linecap="round" stroke-linejoin="round"/>
<path d="M9.99991 34H15.9999L12.5527 40.8944C12.2139 41.572 11.5214 42 10.7638 42H9.23597C7.74921 42 6.78223 40.4354 7.44713 39.1056L9.99991 34Z" fill="black"/>
<path d="M30 34H24L27.4472 40.8944C27.786 41.572 28.4786 42 29.236 42H30.764C32.2506 42 33.2176 40.4354 32.5528 39.1056L30 34Z" fill="black"/>
<path d="M14 2H26C32.6274 2 38 7.37258 38 14V22C38 28.6274 32.6274 34 26 34H14C7.37258 34 2 28.6274 2 22V14C2 7.37258 7.37258 2 14 2Z" stroke="black" stroke-width="3" stroke-linecap="round" stroke-linejoin="round"/>
<path d="M27.9999 26.02L28.0199 25.9978" stroke="black" stroke-width="3" stroke-linecap="round" stroke-linejoin="round"/>
<path d="M12.0001 26.02L12.0201 25.9978" stroke="black" stroke-width="3" stroke-linecap="round" stroke-linejoin="round"/>
</svg>
